<?xml version="1.0" encoding="UTF-8" standalone="no"?>
<svg
   width="135"
   height="810"
   viewBox="0 0 135 810"
   version="1.1"
   id="svg1"
   sodipodi:docname="heropattern.svg"
   inkscape:version="1.4.2 (ebf0e940d0, 2025-05-08)"
   xmlns:inkscape="http://www.inkscape.org/namespaces/inkscape"
   xmlns:sodipodi="http://sodipodi.sourceforge.net/DTD/sodipodi-0.dtd"
   xmlns="http://www.w3.org/2000/svg"
   xmlns:svg="http://www.w3.org/2000/svg">
  <defs
     id="defs1" />
  <sodipodi:namedview
     id="namedview1"
     pagecolor="#ffffff"
     bordercolor="#000000"
     borderopacity="0.25"
     inkscape:showpageshadow="2"
     inkscape:pageopacity="0.0"
     inkscape:pagecheckerboard="0"
     inkscape:deskcolor="#d1d1d1"
     inkscape:zoom="0.43769382"
     inkscape:cx="-292.44187"
     inkscape:cy="614.58488"
     inkscape:window-width="1440"
     inkscape:window-height="888"
     inkscape:window-x="0"
     inkscape:window-y="0"
     inkscape:window-maximized="1"
     inkscape:current-layer="svg1" />
  <path
     id="path1"
     d="M 4 0 L 4 3 L 0 3 L 0 5 L 6 5 L 6 0 L 4 0 z M 8 0 L 8 7 L 0 7 L 0 9 L 10 9 L 10 0 L 8 0 z M 19 0 L 19 18 L 14 18 L 14 18.011719 C 8.433 18.271719 4 22.87 4 28.5 C 4 34.13 8.433 38.727281 14 38.988281 L 14 39 L 25 39 L 25 24 L 34 24 L 34 48 L 29 48 L 29 48.011719 C 23.433 48.271719 19 52.869 19 58.5 C 19 64.13 23.433 68.727281 29 68.988281 L 29 69 L 40 69 L 40 54 L 49 54 L 49 78 L 44 78 L 44 78.011719 C 38.433 78.271719 34 82.869 34 88.5 C 34 94.13 38.433 98.727281 44 98.988281 L 44 99 L 55 99 L 55 84 L 64 84 L 64 108 L 59 108 L 59 108.01172 C 53.433 108.27172 49 112.869 49 118.5 C 49 124.13 53.433 128.72728 59 128.98828 L 59 129 L 70 129 L 70 114 L 79 114 L 79 135 L 79 138 L 74 138 L 74 138.01172 C 68.433 138.27172 64 142.869 64 148.5 C 64 154.13 68.433 158.72728 74 158.98828 L 74 159 L 85 159 L 85 144 L 94 144 L 94 168 L 89 168 L 89 168.01172 C 83.433 168.27172 79 172.869 79 178.5 C 79 184.13 83.433 188.72728 89 188.98828 L 89 189 L 100 189 L 100 174 L 109 174 L 109 198 L 104 198 L 104 198.01172 C 98.433 198.27172 94 202.869 94 208.5 C 94 214.13 98.433 218.72728 104 218.98828 L 104 219 L 115 219 L 115 204 L 124 204 L 124 228 L 119 228 L 119 228.01172 C 113.433 228.27172 109 232.869 109 238.5 C 109 244.13 113.433 248.72728 119 248.98828 L 119 249 L 130 249 L 130 234 L 135 234 L 135 232 L 130 232 L 130 230 L 135 230 L 135 228 L 130 228 L 130 204 L 135 204 L 135 201.98633 C 134.835 201.99633 134.668 202 134.5 202 L 115 202 L 115 200 L 134.5 200 C 134.668 200 134.835 199.99447 135 199.98047 L 135 197.97266 C 134.836 197.99066 134.67 198 134.5 198 L 130 198 L 130 189 L 134.5 189 C 134.67 189 134.836 189.01034 135 189.02734 L 135 187.01953 C 134.835 187.00553 134.668 187 134.5 187 L 128 187 L 128 198 L 126 198 L 126 185 L 134.5 185 C 134.668 185 134.835 185.00467 135 185.01367 L 135 183 L 124 183 L 124 198 L 115 198 L 115 174 L 120 174 L 120 173.98828 C 125.567 173.72828 130 169.131 130 163.5 C 130 157.87 125.567 153.27272 120 153.01172 L 120 153 L 109 153 L 109 168 L 100 168 L 100 144 L 105 144 L 105 143.98828 C 110.063 143.75128 114.19053 139.928 114.89453 135 C 114.96453 134.51 115 134.01 115 133.5 C 115 127.87 110.567 123.27272 105 123.01172 L 105 123 L 94 123 L 94 135 L 94 138 L 85 138 L 85 135 L 85 114 L 90 114 L 90 113.98828 C 95.567 113.72828 100 109.131 100 103.5 C 100 97.87 95.567 93.272719 90 93.011719 L 90 93 L 79 93 L 79 108 L 70 108 L 70 84 L 75 84 L 75 83.988281 C 80.567 83.728281 85 79.131 85 73.5 C 85 67.87 80.567 63.272719 75 63.011719 L 75 63 L 64 63 L 64 78 L 55 78 L 55 54 L 60 54 L 60 53.988281 C 65.567 53.728281 70 49.131 70 43.5 C 70 37.87 65.567 33.272719 60 33.011719 L 60 33 L 49 33 L 49 48 L 40 48 L 40 24 L 45 24 L 45 23.988281 C 50.567 23.728281 55 19.131 55 13.5 C 55 7.87 50.567 3.2727188 45 3.0117188 L 45 3 L 34 3 L 34 18 L 25 18 L 25 0 L 23 0 L 23 37 L 14.5 37 C 9.806 37 6 33.194 6 28.5 C 6 23.806 9.806 20 14.5 20 L 19 20 L 19 22 L 14.5 22 C 10.91 22 8 24.91 8 28.5 C 8 32.09 10.91 35 14.5 35 L 21 35 L 21 0 L 19 0 z M 79 0 L 79 3 L 74 3 L 74 3.0117188 C 68.433 3.2717187 64 7.869 64 13.5 C 64 19.13 68.433 23.727281 74 23.988281 L 74 24 L 85 24 L 85 9 L 94 9 L 94 33 L 89 33 L 89 33.011719 C 83.433 33.271719 79 37.869 79 43.5 C 79 49.13 83.433 53.727281 89 53.988281 L 89 54 L 100 54 L 100 39 L 109 39 L 109 63 L 104 63 L 104 63.011719 C 98.433 63.271719 94 67.869 94 73.5 C 94 79.13 98.433 83.727281 104 83.988281 L 104 84 L 115 84 L 115 69 L 124 69 L 124 93 L 119 93 L 119 93.011719 C 113.433 93.271719 109 97.869 109 103.5 C 109 109.13 113.433 113.72728 119 113.98828 L 119 114 L 130 114 L 130 99 L 135 99 L 135 97 L 130 97 L 130 95 L 135 95 L 135 93 L 130 93 L 130 69 L 135 69 L 135 66.986328 C 134.835 66.996328 134.668 67 134.5 67 L 115 67 L 115 65 L 134.5 65 C 134.668 65 134.835 64.994469 135 64.980469 L 135 62.972656 C 134.836 62.990656 134.67 63 134.5 63 L 130 63 L 130 54 L 134.5 54 C 134.67 54 134.836 54.010344 135 54.027344 L 135 52.019531 C 134.835 52.005531 134.668 52 134.5 52 L 128 52 L 128 63 L 126 63 L 126 50 L 134.5 50 C 134.668 50 134.835 50.004672 135 50.013672 L 135 48 L 124 48 L 124 63 L 115 63 L 115 39 L 120 39 L 120 38.988281 C 125.567 38.728281 130 34.131 130 28.5 C 130 22.87 125.567 18.272719 120 18.011719 L 120 18 L 109 18 L 109 33 L 100 33 L 100 9 L 105 9 L 105 8.9882812 C 110.063 8.7512812 114.19053 4.928 114.89453 0 L 112.86719 0 C 112.15919 3.98 108.683 7 104.5 7 L 85 7 L 85 5 L 104.5 5 C 107.574 5 110.15017 2.867 110.82617 0 L 108.74414 0 C 108.12614 1.748 106.459 3 104.5 3 L 100 3 L 100 0 L 98 0 L 98 3 L 96 3 L 96 0 L 94 0 L 94 3 L 85 3 L 85 0 L 83 0 L 83 22 L 74.5 22 C 69.806 22 66 18.194 66 13.5 C 66 8.806 69.806 5 74.5 5 L 79 5 L 79 7 L 74.5 7 C 70.91 7 68 9.91 68 13.5 C 68 17.09 70.91 20 74.5 20 L 81 20 L 81 0 L 79 0 z M 124.10547 0 C 124.80947 4.928 128.937 8.7512812 134 8.9882812 L 134 9 L 135 9 L 135 7 L 134.5 7 C 130.317 7 126.84081 3.98 126.13281 0 L 124.10547 0 z M 128.17383 0 C 128.84983 2.867 131.426 5 134.5 5 L 135 5 L 135 3 L 134.5 3 C 132.541 3 130.87386 1.748 130.25586 0 L 128.17383 0 z M 36 5 L 44.5 5 C 49.194 5 53 8.806 53 13.5 C 53 18.194 49.194 22 44.5 22 L 25 22 L 25 20 L 44.5 20 C 48.09 20 51 17.09 51 13.5 C 51 9.91 48.09 7 44.5 7 L 38 7 L 38 18 L 36 18 L 36 5 z M 40 9 L 44.5 9 C 46.985 9 49 11.015 49 13.5 C 49 15.985 46.985 18 44.5 18 L 40 18 L 40 9 z M 74.5 9 L 79 9 L 79 18 L 74.5 18 C 72.015 18 70 15.985 70 13.5 C 70 11.015 72.015 9 74.5 9 z M 96 9 L 98 9 L 98 52 L 89.5 52 C 84.806 52 81 48.194 81 43.5 C 81 38.806 84.806 35 89.5 35 L 94 35 L 94 37 L 89.5 37 C 85.91 37 83 39.91 83 43.5 C 83 47.09 85.91 50 89.5 50 L 96 50 L 96 34 L 96 9 z M 111 20 L 119.5 20 C 124.194 20 128 23.806 128 28.5 C 128 33.194 124.194 37 119.5 37 L 100 37 L 100 35 L 119.5 35 C 123.09 35 126 32.09 126 28.5 C 126 24.91 123.09 22 119.5 22 L 113 22 L 113 33 L 111 33 L 111 20 z M 14.5 24 L 19 24 L 19 33 L 14.5 33 C 12.015 33 10 30.985 10 28.5 C 10 26.015 12.015 24 14.5 24 z M 36 24 L 38 24 L 38 67 L 29.5 67 C 24.806 67 21 63.194 21 58.5 C 21 53.806 24.806 50 29.5 50 L 34 50 L 34 52 L 29.5 52 C 25.91 52 23 54.91 23 58.5 C 23 62.09 25.91 65 29.5 65 L 36 65 L 36 49 L 36 24 z M 115 24 L 119.5 24 C 121.985 24 124 26.015 124 28.5 C 124 30.985 121.985 33 119.5 33 L 115 33 L 115 24 z M 51 35 L 59.5 35 C 64.194 35 68 38.806 68 43.5 C 68 48.194 64.194 52 59.5 52 L 40 52 L 40 50 L 59.5 50 C 63.09 50 66 47.09 66 43.5 C 66 39.91 63.09 37 59.5 37 L 53 37 L 53 48 L 51 48 L 51 35 z M 55 39 L 59.5 39 C 61.985 39 64 41.015 64 43.5 C 64 45.985 61.985 48 59.5 48 L 55 48 L 55 39 z M 89.5 39 L 94 39 L 94 48 L 89.5 48 C 87.015 48 85 45.985 85 43.5 C 85 41.015 87.015 39 89.5 39 z M 111 39 L 113 39 L 113 82 L 104.5 82 C 99.806 82 96 78.194 96 73.5 C 96 68.806 99.806 65 104.5 65 L 109 65 L 109 67 L 104.5 67 C 100.91 67 98 69.91 98 73.5 C 98 77.09 100.91 80 104.5 80 L 111 80 L 111 64 L 111 39 z M 0 48.011719 L 0 50.013672 C 4.462 50.272672 8 53.973 8 58.5 C 8 63.026 4.462 66.726328 0 66.986328 L 0 68.988281 C 5.567 68.727281 10 64.13 10 58.5 C 10 52.869 5.567 48.271719 0 48.011719 z M 0 52.019531 L 0 54.027344 C 2.25 54.276344 4 56.184 4 58.5 C 4 60.816 2.25 62.722656 0 62.972656 L 0 64.980469 C 3.356 64.726469 6 61.922 6 58.5 C 6 55.078 3.356 52.273531 0 52.019531 z M 29.5 54 L 34 54 L 34 63 L 29.5 63 C 27.015 63 25 60.985 25 58.5 C 25 56.015 27.015 54 29.5 54 z M 51 54 L 53 54 L 53 97 L 44.5 97 C 39.806 97 36 93.194 36 88.5 C 36 83.806 39.806 80 44.5 80 L 49 80 L 49 82 L 44.5 82 C 40.91 82 38 84.91 38 88.5 C 38 92.09 40.91 95 44.5 95 L 51 95 L 51 79 L 51 54 z M 66 65 L 74.5 65 C 79.194 65 83 68.806 83 73.5 C 83 78.194 79.194 82 74.5 82 L 55 82 L 55 80 L 74.5 80 C 78.09 80 81 77.09 81 73.5 C 81 69.91 78.09 67 74.5 67 L 68 67 L 68 78 L 66 78 L 66 65 z M 70 69 L 74.5 69 C 76.985 69 79 71.015 79 73.5 C 79 75.985 76.985 78 74.5 78 L 70 78 L 70 69 z M 104.5 69 L 109 69 L 109 78 L 104.5 78 C 102.015 78 100 75.985 100 73.5 C 100 71.015 102.015 69 104.5 69 z M 126 69 L 128 69 L 128 112 L 119.5 112 C 114.806 112 111 108.194 111 103.5 C 111 98.806 114.806 95 119.5 95 L 124 95 L 124 97 L 119.5 97 C 115.91 97 113 99.91 113 103.5 C 113 107.09 115.91 110 119.5 110 L 126 110 L 126 94 L 126 69 z M 4 78 L 4 93 L 0 93 L 0 95 L 14.5 95 C 18.09 95 21 92.09 21 88.5 C 21 84.91 18.09 82 14.5 82 L 8 82 L 8 93 L 6 93 L 6 80 L 14.5 80 C 19.194 80 23 83.806 23 88.5 C 23 93.194 19.194 97 14.5 97 L 0 97 L 0 99 L 4 99 L 4 123 L 0 123 L 0 125 L 4 125 L 4 127 L 0 127 L 0 129 L 4 129 L 4 135 L 4 138 L 0 138 L 0 140 L 6 140 L 6 135 L 6 99 L 8 99 L 8 135 L 8 142 L 0 142 L 0 144 L 10 144 L 10 135 L 10 129 L 19 129 L 19 135 L 19 153 L 14 153 L 14 153.01172 C 8.433 153.27172 4 157.87 4 163.5 C 4 169.13 8.433 173.72728 14 173.98828 L 14 174 L 25 174 L 25 159 L 34 159 L 34 183 L 29 183 L 29 183.01172 C 23.433 183.27172 19 187.869 19 193.5 C 19 199.13 23.433 203.72728 29 203.98828 L 29 204 L 40 204 L 40 189 L 49 189 L 49 213 L 44 213 L 44 213.01172 C 38.433 213.27172 34 217.869 34 223.5 C 34 229.13 38.433 233.72728 44 233.98828 L 44 234 L 55 234 L 55 219 L 64 219 L 64 243 L 59 243 L 59 243.01172 C 53.433 243.27172 49 247.869 49 253.5 C 49 259.13 53.433 263.72728 59 263.98828 L 59 264 L 70 264 L 70 249 L 79 249 L 79 270 L 79 273 L 74 273 L 74 273.01172 C 68.433 273.27172 64 277.869 64 283.5 C 64 289.13 68.433 293.72728 74 293.98828 L 74 294 L 85 294 L 85 279 L 94 279 L 94 303 L 89 303 L 89 303.01172 C 83.433 303.27172 79 307.869 79 313.5 C 79 319.13 83.433 323.72728 89 323.98828 L 89 324 L 100 324 L 100 309 L 109 309 L 109 333 L 104 333 L 104 333.01172 C 98.433 333.27172 94 337.869 94 343.5 C 94 349.13 98.433 353.72728 104 353.98828 L 104 354 L 115 354 L 115 339 L 124 339 L 124 363 L 119 363 L 119 363.01172 C 113.433 363.27172 109 367.869 109 373.5 C 109 379.13 113.433 383.72728 119 383.98828 L 119 384 L 130 384 L 130 369 L 135 369 L 135 367 L 130 367 L 130 365 L 135 365 L 135 363 L 130 363 L 130 339 L 135 339 L 135 336.98633 C 134.835 336.99633 134.668 337 134.5 337 L 115 337 L 115 335 L 134.5 335 C 134.668 335 134.835 334.99447 135 334.98047 L 135 332.97266 C 134.836 332.99066 134.67 333 134.5 333 L 130 333 L 130 324 L 134.5 324 C 134.67 324 134.836 324.01034 135 324.02734 L 135 322.01953 C 134.835 322.00553 134.668 322 134.5 322 L 128 322 L 128 333 L 126 333 L 126 320 L 134.5 320 C 134.668 320 134.835 320.00467 135 320.01367 L 135 318 L 124 318 L 124 333 L 115 333 L 115 309 L 120 309 L 120 308.98828 C 125.567 308.72828 130 304.131 130 298.5 C 130 292.87 125.567 288.27272 120 288.01172 L 120 288 L 109 288 L 109 303 L 100 303 L 100 279 L 105 279 L 105 278.98828 C 110.063 278.75128 114.19053 274.928 114.89453 270 C 114.96453 269.51 115 269.01 115 268.5 C 115 262.87 110.567 258.27272 105 258.01172 L 105 258 L 94 258 L 94 270 L 94 273 L 85 273 L 85 270 L 85 249 L 90 249 L 90 248.98828 C 95.567 248.72828 100 244.131 100 238.5 C 100 232.87 95.567 228.27272 90 228.01172 L 90 228 L 79 228 L 79 243 L 70 243 L 70 219 L 75 219 L 75 218.98828 C 80.567 218.72828 85 214.131 85 208.5 C 85 202.87 80.567 198.27272 75 198.01172 L 75 198 L 64 198 L 64 213 L 55 213 L 55 189 L 60 189 L 60 188.98828 C 65.567 188.72828 70 184.131 70 178.5 C 70 172.87 65.567 168.27272 60 168.01172 L 60 168 L 49 168 L 49 183 L 40 183 L 40 159 L 45 159 L 45 158.98828 C 50.567 158.72828 55 154.131 55 148.5 C 55 142.87 50.567 138.27272 45 138.01172 L 45 138 L 34 138 L 34 153 L 25 153 L 25 135 L 25 129 L 30 129 L 30 128.98828 C 35.567 128.72828 40 124.131 40 118.5 C 40 112.87 35.567 108.27272 30 108.01172 L 30 108 L 19 108 L 19 123 L 10 123 L 10 99 L 15 99 L 15 98.988281 C 20.567 98.728281 25 94.131 25 88.5 C 25 82.87 20.567 78.272719 15 78.011719 L 15 78 L 4 78 z M 10 84 L 14.5 84 C 16.985 84 19 86.015 19 88.5 C 19 90.985 16.985 93 14.5 93 L 10 93 L 10 84 z M 44.5 84 L 49 84 L 49 93 L 44.5 93 C 42.015 93 40 90.985 40 88.5 C 40 86.015 42.015 84 44.5 84 z M 66 84 L 68 84 L 68 127 L 59.5 127 C 54.806 127 51 123.194 51 118.5 C 51 113.806 54.806 110 59.5 110 L 64 110 L 64 112 L 59.5 112 C 55.91 112 53 114.91 53 118.5 C 53 122.09 55.91 125 59.5 125 L 66 125 L 66 109 L 66 84 z M 81 95 L 89.5 95 C 94.194 95 98 98.806 98 103.5 C 98 108.194 94.194 112 89.5 112 L 70 112 L 70 110 L 89.5 110 C 93.09 110 96 107.09 96 103.5 C 96 99.91 93.09 97 89.5 97 L 83 97 L 83 108 L 81 108 L 81 95 z M 85 99 L 89.5 99 C 91.985 99 94 101.015 94 103.5 C 94 105.985 91.985 108 89.5 108 L 85 108 L 85 99 z M 119.5 99 L 124 99 L 124 108 L 119.5 108 C 117.015 108 115 105.985 115 103.5 C 115 101.015 117.015 99 119.5 99 z M 21 110 L 29.5 110 C 34.194 110 38 113.806 38 118.5 C 38 123.194 34.194 127 29.5 127 L 10 127 L 10 125 L 29.5 125 C 33.09 125 36 122.09 36 118.5 C 36 114.91 33.09 112 29.5 112 L 23 112 L 23 123 L 21 123 L 21 110 z M 25 114 L 29.5 114 C 31.985 114 34 116.015 34 118.5 C 34 120.985 31.985 123 29.5 123 L 25 123 L 25 114 z M 59.5 114 L 64 114 L 64 123 L 59.5 123 C 57.015 123 55 120.985 55 118.5 C 55 116.015 57.015 114 59.5 114 z M 81 114 L 83 114 L 83 135 L 83 157 L 74.5 157 C 69.806 157 66 153.194 66 148.5 C 66 143.806 69.806 140 74.5 140 L 79 140 L 79 142 L 74.5 142 C 70.91 142 68 144.91 68 148.5 C 68 152.09 70.91 155 74.5 155 L 81 155 L 81 135 L 81 114 z M 134 123 L 134 123.01172 C 128.433 123.27272 124 127.87 124 133.5 C 124 134.01 124.03547 134.51 124.10547 135 C 124.80947 139.928 128.937 143.75128 134 143.98828 L 134 144 L 135 144 L 135 142 L 134.5 142 C 130.317 142 126.84081 138.98 126.13281 135 C 126.04581 134.513 126 134.012 126 133.5 C 126 128.806 129.806 125 134.5 125 L 135 125 L 135 123 L 134 123 z M 96 125 L 104.5 125 C 109.194 125 113 128.806 113 133.5 C 113 134.012 112.95419 134.513 112.86719 135 C 112.15919 138.98 108.683 142 104.5 142 L 85 142 L 85 140 L 104.5 140 C 107.574 140 110.15017 137.867 110.82617 135 C 110.94017 134.518 111 134.016 111 133.5 C 111 129.91 108.09 127 104.5 127 L 98 127 L 98 135 L 98 138 L 96 138 L 96 135 L 96 125 z M 134.5 127 C 130.91 127 128 129.91 128 133.5 C 128 134.016 128.05983 134.518 128.17383 135 C 128.84983 137.867 131.426 140 134.5 140 L 135 140 L 135 138 L 134.5 138 C 132.541 138 130.87386 136.748 130.25586 135 C 130.08986 134.53 130 134.026 130 133.5 C 130 131.015 132.015 129 134.5 129 L 135 129 L 135 127 L 134.5 127 z M 21 129 L 23 129 L 23 135 L 23 172 L 14.5 172 C 9.806 172 6 168.194 6 163.5 C 6 158.806 9.806 155 14.5 155 L 19 155 L 19 157 L 14.5 157 C 10.91 157 8 159.91 8 163.5 C 8 167.09 10.91 170 14.5 170 L 21 170 L 21 135 L 21 129 z M 100 129 L 104.5 129 C 106.985 129 109 131.015 109 133.5 C 109 134.026 108.91014 134.53 108.74414 135 C 108.12614 136.748 106.459 138 104.5 138 L 100 138 L 100 135 L 100 129 z M 36 140 L 44.5 140 C 49.194 140 53 143.806 53 148.5 C 53 153.194 49.194 157 44.5 157 L 25 157 L 25 155 L 44.5 155 C 48.09 155 51 152.09 51 148.5 C 51 144.91 48.09 142 44.5 142 L 38 142 L 38 153 L 36 153 L 36 140 z M 40 144 L 44.5 144 C 46.985 144 49 146.015 49 148.5 C 49 150.985 46.985 153 44.5 153 L 40 153 L 40 144 z M 74.5 144 L 79 144 L 79 153 L 74.5 153 C 72.015 153 70 150.985 70 148.5 C 70 146.015 72.015 144 74.5 144 z M 96 144 L 98 144 L 98 187 L 89.5 187 C 84.806 187 81 183.194 81 178.5 C 81 173.806 84.806 170 89.5 170 L 94 170 L 94 172 L 89.5 172 C 85.91 172 83 174.91 83 178.5 C 83 182.09 85.91 185 89.5 185 L 96 185 L 96 169 L 96 144 z M 111 155 L 119.5 155 C 124.194 155 128 158.806 128 163.5 C 128 168.194 124.194 172 119.5 172 L 100 172 L 100 170 L 119.5 170 C 123.09 170 126 167.09 126 163.5 C 126 159.91 123.09 157 119.5 157 L 113 157 L 113 168 L 111 168 L 111 155 z M 14.5 159 L 19 159 L 19 168 L 14.5 168 C 12.015 168 10 165.985 10 163.5 C 10 161.015 12.015 159 14.5 159 z M 36 159 L 38 159 L 38 202 L 29.5 202 C 24.806 202 21 198.194 21 193.5 C 21 188.806 24.806 185 29.5 185 L 34 185 L 34 187 L 29.5 187 C 25.91 187 23 189.91 23 193.5 C 23 197.09 25.91 200 29.5 200 L 36 200 L 36 184 L 36 159 z M 115 159 L 119.5 159 C 121.985 159 124 161.015 124 163.5 C 124 165.985 121.985 168 119.5 168 L 115 168 L 115 159 z M 51 170 L 59.5 170 C 64.194 170 68 173.806 68 178.5 C 68 183.194 64.194 187 59.5 187 L 40 187 L 40 185 L 59.5 185 C 63.09 185 66 182.09 66 178.5 C 66 174.91 63.09 172 59.5 172 L 53 172 L 53 183 L 51 183 L 51 170 z M 55 174 L 59.5 174 C 61.985 174 64 176.015 64 178.5 C 64 180.985 61.985 183 59.5 183 L 55 183 L 55 174 z M 89.5 174 L 94 174 L 94 183 L 89.5 183 C 87.015 183 85 180.985 85 178.5 C 85 176.015 87.015 174 89.5 174 z M 111 174 L 113 174 L 113 217 L 104.5 217 C 99.806 217 96 213.194 96 208.5 C 96 203.806 99.806 200 104.5 200 L 109 200 L 109 202 L 104.5 202 C 100.91 202 98 204.91 98 208.5 C 98 212.09 100.91 215 104.5 215 L 111 215 L 111 199 L 111 174 z M 0 183.01172 L 0 185.01367 C 4.462 185.27267 8 188.973 8 193.5 C 8 198.026 4.462 201.72633 0 201.98633 L 0 203.98828 C 5.567 203.72728 10 199.13 10 193.5 C 10 187.869 5.567 183.27172 0 183.01172 z M 0 187.01953 L 0 189.02734 C 2.25 189.27634 4 191.184 4 193.5 C 4 195.816 2.25 197.72266 0 197.97266 L 0 199.98047 C 3.356 199.72647 6 196.922 6 193.5 C 6 190.078 3.356 187.27353 0 187.01953 z M 29.5 189 L 34 189 L 34 198 L 29.5 198 C 27.015 198 25 195.985 25 193.5 C 25 191.015 27.015 189 29.5 189 z M 51 189 L 53 189 L 53 232 L 44.5 232 C 39.806 232 36 228.194 36 223.5 C 36 218.806 39.806 215 44.5 215 L 49 215 L 49 217 L 44.5 217 C 40.91 217 38 219.91 38 223.5 C 38 227.09 40.91 230 44.5 230 L 51 230 L 51 214 L 51 189 z M 66 200 L 74.5 200 C 79.194 200 83 203.806 83 208.5 C 83 213.194 79.194 217 74.5 217 L 55 217 L 55 215 L 74.5 215 C 78.09 215 81 212.09 81 208.5 C 81 204.91 78.09 202 74.5 202 L 68 202 L 68 213 L 66 213 L 66 200 z M 70 204 L 74.5 204 C 76.985 204 79 206.015 79 208.5 C 79 210.985 76.985 213 74.5 213 L 70 213 L 70 204 z M 104.5 204 L 109 204 L 109 213 L 104.5 213 C 102.015 213 100 210.985 100 208.5 C 100 206.015 102.015 204 104.5 204 z M 126 204 L 128 204 L 128 247 L 119.5 247 C 114.806 247 111 243.194 111 238.5 C 111 233.806 114.806 230 119.5 230 L 124 230 L 124 232 L 119.5 232 C 115.91 232 113 234.91 113 238.5 C 113 242.09 115.91 245 119.5 245 L 126 245 L 126 229 L 126 204 z M 4 213 L 4 228 L 0 228 L 0 230 L 14.5 230 C 18.09 230 21 227.09 21 223.5 C 21 219.91 18.09 217 14.5 217 L 8 217 L 8 228 L 6 228 L 6 215 L 14.5 215 C 19.194 215 23 218.806 23 223.5 C 23 228.194 19.194 232 14.5 232 L 0 232 L 0 234 L 4 234 L 4 258 L 0 258 L 0 260 L 4 260 L 4 262 L 0 262 L 0 264 L 4 264 L 4 270 L 4 273 L 0 273 L 0 275 L 6 275 L 6 270 L 6 234 L 8 234 L 8 270 L 8 277 L 0 277 L 0 279 L 10 279 L 10 270 L 10 264 L 19 264 L 19 270 L 19 288 L 14 288 L 14 288.01172 C 8.433 288.27172 4 292.87 4 298.5 C 4 304.13 8.433 308.72728 14 308.98828 L 14 309 L 25 309 L 25 294 L 34 294 L 34 318 L 29 318 L 29 318.01172 C 23.433 318.27172 19 322.869 19 328.5 C 19 334.13 23.433 338.72728 29 338.98828 L 29 339 L 40 339 L 40 324 L 49 324 L 49 348 L 44 348 L 44 348.01172 C 38.433 348.27172 34 352.869 34 358.5 C 34 364.13 38.433 368.72728 44 368.98828 L 44 369 L 55 369 L 55 354 L 64 354 L 64 378 L 59 378 L 59 378.01172 C 53.433 378.27172 49 382.869 49 388.5 C 49 394.13 53.433 398.72728 59 398.98828 L 59 399 L 70 399 L 70 384 L 79 384 L 79 405 L 79 408 L 74 408 L 74 408.01172 C 68.433 408.27172 64 412.869 64 418.5 C 64 424.13 68.433 428.72728 74 428.98828 L 74 429 L 85 429 L 85 414 L 94 414 L 94 438 L 89 438 L 89 438.01172 C 83.433 438.27172 79 442.869 79 448.5 C 79 454.13 83.433 458.72728 89 458.98828 L 89 459 L 100 459 L 100 444 L 109 444 L 109 468 L 104 468 L 104 468.01172 C 98.433 468.27172 94 472.869 94 478.5 C 94 484.13 98.433 488.72728 104 488.98828 L 104 489 L 115 489 L 115 474 L 124 474 L 124 498 L 119 498 L 119 498.01172 C 113.433 498.27172 109 502.869 109 508.5 C 109 514.13 113.433 518.72728 119 518.98828 L 119 519 L 130 519 L 130 504 L 135 504 L 135 502 L 130 502 L 130 500 L 135 500 L 135 498 L 130 498 L 130 474 L 135 474 L 135 471.98633 C 134.835 471.99633 134.668 472 134.5 472 L 115 472 L 115 470 L 134.5 470 C 134.668 470 134.835 469.99447 135 469.98047 L 135 467.97266 C 134.836 467.99066 134.67 468 134.5 468 L 130 468 L 130 459 L 134.5 459 C 134.67 459 134.836 459.01034 135 459.02734 L 135 457.01953 C 134.835 457.00553 134.668 457 134.5 457 L 128 457 L 128 468 L 126 468 L 126 455 L 134.5 455 C 134.668 455 134.835 455.00467 135 455.01367 L 135 453 L 124 453 L 124 468 L 115 468 L 115 444 L 120 444 L 120 443.98828 C 125.567 443.72828 130 439.131 130 433.5 C 130 427.87 125.567 423.27272 120 423.01172 L 120 423 L 109 423 L 109 438 L 100 438 L 100 414 L 105 414 L 105 413.98828 C 110.063 413.75128 114.19053 409.928 114.89453 405 C 114.96453 404.51 115 404.01 115 403.5 C 115 397.87 110.567 393.27272 105 393.01172 L 105 393 L 94 393 L 94 405 L 94 408 L 85 408 L 85 405 L 85 384 L 90 384 L 90 383.98828 C 95.567 383.72828 100 379.131 100 373.5 C 100 367.87 95.567 363.27272 90 363.01172 L 90 363 L 79 363 L 79 378 L 70 378 L 70 354 L 75 354 L 75 353.98828 C 80.567 353.72828 85 349.131 85 343.5 C 85 337.87 80.567 333.27272 75 333.01172 L 75 333 L 64 333 L 64 348 L 55 348 L 55 324 L 60 324 L 60 323.98828 C 65.567 323.72828 70 319.131 70 313.5 C 70 307.87 65.567 303.27272 60 303.01172 L 60 303 L 49 303 L 49 318 L 40 318 L 40 294 L 45 294 L 45 293.98828 C 50.567 293.72828 55 289.131 55 283.5 C 55 277.87 50.567 273.27272 45 273.01172 L 45 273 L 34 273 L 34 288 L 25 288 L 25 270 L 25 264 L 30 264 L 30 263.98828 C 35.567 263.72828 40 259.131 40 253.5 C 40 247.87 35.567 243.27272 30 243.01172 L 30 243 L 19 243 L 19 258 L 10 258 L 10 234 L 15 234 L 15 233.98828 C 20.567 233.72828 25 229.131 25 223.5 C 25 217.87 20.567 213.27272 15 213.01172 L 15 213 L 4 213 z M 10 219 L 14.5 219 C 16.985 219 19 221.015 19 223.5 C 19 225.985 16.985 228 14.5 228 L 10 228 L 10 219 z M 44.5 219 L 49 219 L 49 228 L 44.5 228 C 42.015 228 40 225.985 40 223.5 C 40 221.015 42.015 219 44.5 219 z M 66 219 L 68 219 L 68 262 L 59.5 262 C 54.806 262 51 258.194 51 253.5 C 51 248.806 54.806 245 59.5 245 L 64 245 L 64 247 L 59.5 247 C 55.91 247 53 249.91 53 253.5 C 53 257.09 55.91 260 59.5 260 L 66 260 L 66 244 L 66 219 z M 81 230 L 89.5 230 C 94.194 230 98 233.806 98 238.5 C 98 243.194 94.194 247 89.5 247 L 70 247 L 70 245 L 89.5 245 C 93.09 245 96 242.09 96 238.5 C 96 234.91 93.09 232 89.5 232 L 83 232 L 83 243 L 81 243 L 81 230 z M 85 234 L 89.5 234 C 91.985 234 94 236.015 94 238.5 C 94 240.985 91.985 243 89.5 243 L 85 243 L 85 234 z M 119.5 234 L 124 234 L 124 243 L 119.5 243 C 117.015 243 115 240.985 115 238.5 C 115 236.015 117.015 234 119.5 234 z M 21 245 L 29.5 245 C 34.194 245 38 248.806 38 253.5 C 38 258.194 34.194 262 29.5 262 L 10 262 L 10 260 L 29.5 260 C 33.09 260 36 257.09 36 253.5 C 36 249.91 33.09 247 29.5 247 L 23 247 L 23 258 L 21 258 L 21 245 z M 25 249 L 29.5 249 C 31.985 249 34 251.015 34 253.5 C 34 255.985 31.985 258 29.5 258 L 25 258 L 25 249 z M 59.5 249 L 64 249 L 64 258 L 59.5 258 C 57.015 258 55 255.985 55 253.5 C 55 251.015 57.015 249 59.5 249 z M 81 249 L 83 249 L 83 270 L 83 292 L 74.5 292 C 69.806 292 66 288.194 66 283.5 C 66 278.806 69.806 275 74.5 275 L 79 275 L 79 277 L 74.5 277 C 70.91 277 68 279.91 68 283.5 C 68 287.09 70.91 290 74.5 290 L 81 290 L 81 270 L 81 249 z M 134 258 L 134 258.01172 C 128.433 258.27272 124 262.87 124 268.5 C 124 269.01 124.03547 269.51 124.10547 270 C 124.80947 274.928 128.937 278.75128 134 278.98828 L 134 279 L 135 279 L 135 277 L 134.5 277 C 130.317 277 126.84081 273.98 126.13281 270 C 126.04581 269.513 126 269.012 126 268.5 C 126 263.806 129.806 260 134.5 260 L 135 260 L 135 258 L 134 258 z M 96 260 L 104.5 260 C 109.194 260 113 263.806 113 268.5 C 113 269.012 112.95419 269.513 112.86719 270 C 112.15919 273.98 108.683 277 104.5 277 L 85 277 L 85 275 L 104.5 275 C 107.574 275 110.15017 272.867 110.82617 270 C 110.94017 269.518 111 269.016 111 268.5 C 111 264.91 108.09 262 104.5 262 L 98 262 L 98 270 L 98 273 L 96 273 L 96 270 L 96 260 z M 134.5 262 C 130.91 262 128 264.91 128 268.5 C 128 269.016 128.05983 269.518 128.17383 270 C 128.84983 272.867 131.426 275 134.5 275 L 135 275 L 135 273 L 134.5 273 C 132.541 273 130.87386 271.748 130.25586 270 C 130.08986 269.53 130 269.026 130 268.5 C 130 266.015 132.015 264 134.5 264 L 135 264 L 135 262 L 134.5 262 z M 21 264 L 23 264 L 23 270 L 23 307 L 14.5 307 C 9.806 307 6 303.194 6 298.5 C 6 293.806 9.806 290 14.5 290 L 19 290 L 19 292 L 14.5 292 C 10.91 292 8 294.91 8 298.5 C 8 302.09 10.91 305 14.5 305 L 21 305 L 21 270 L 21 264 z M 100 264 L 104.5 264 C 106.985 264 109 266.015 109 268.5 C 109 269.026 108.91014 269.53 108.74414 270 C 108.12614 271.748 106.459 273 104.5 273 L 100 273 L 100 270 L 100 264 z M 36 275 L 44.5 275 C 49.194 275 53 278.806 53 283.5 C 53 288.194 49.194 292 44.5 292 L 25 292 L 25 290 L 44.5 290 C 48.09 290 51 287.09 51 283.5 C 51 279.91 48.09 277 44.5 277 L 38 277 L 38 288 L 36 288 L 36 275 z M 40 279 L 44.5 279 C 46.985 279 49 281.015 49 283.5 C 49 285.985 46.985 288 44.5 288 L 40 288 L 40 279 z M 74.5 279 L 79 279 L 79 288 L 74.5 288 C 72.015 288 70 285.985 70 283.5 C 70 281.015 72.015 279 74.5 279 z M 96 279 L 98 279 L 98 322 L 89.5 322 C 84.806 322 81 318.194 81 313.5 C 81 308.806 84.806 305 89.5 305 L 94 305 L 94 307 L 89.5 307 C 85.91 307 83 309.91 83 313.5 C 83 317.09 85.91 320 89.5 320 L 96 320 L 96 304 L 96 279 z M 111 290 L 119.5 290 C 124.194 290 128 293.806 128 298.5 C 128 303.194 124.194 307 119.5 307 L 100 307 L 100 305 L 119.5 305 C 123.09 305 126 302.09 126 298.5 C 126 294.91 123.09 292 119.5 292 L 113 292 L 113 303 L 111 303 L 111 290 z M 14.5 294 L 19 294 L 19 303 L 14.5 303 C 12.015 303 10 300.985 10 298.5 C 10 296.015 12.015 294 14.5 294 z M 36 294 L 38 294 L 38 337 L 29.5 337 C 24.806 337 21 333.194 21 328.5 C 21 323.806 24.806 320 29.5 320 L 34 320 L 34 322 L 29.5 322 C 25.91 322 23 324.91 23 328.5 C 23 332.09 25.91 335 29.5 335 L 36 335 L 36 319 L 36 294 z M 115 294 L 119.5 294 C 121.985 294 124 296.015 124 298.5 C 124 300.985 121.985 303 119.5 303 L 115 303 L 115 294 z M 51 305 L 59.5 305 C 64.194 305 68 308.806 68 313.5 C 68 318.194 64.194 322 59.5 322 L 40 322 L 40 320 L 59.5 320 C 63.09 320 66 317.09 66 313.5 C 66 309.91 63.09 307 59.5 307 L 53 307 L 53 318 L 51 318 L 51 305 z M 55 309 L 59.5 309 C 61.985 309 64 311.015 64 313.5 C 64 315.985 61.985 318 59.5 318 L 55 318 L 55 309 z M 89.5 309 L 94 309 L 94 318 L 89.5 318 C 87.015 318 85 315.985 85 313.5 C 85 311.015 87.015 309 89.5 309 z M 111 309 L 113 309 L 113 352 L 104.5 352 C 99.806 352 96 348.194 96 343.5 C 96 338.806 99.806 335 104.5 335 L 109 335 L 109 337 L 104.5 337 C 100.91 337 98 339.91 98 343.5 C 98 347.09 100.91 350 104.5 350 L 111 350 L 111 334 L 111 309 z M 0 318.01172 L 0 320.01367 C 4.462 320.27267 8 323.973 8 328.5 C 8 333.026 4.462 336.72633 0 336.98633 L 0 338.98828 C 5.567 338.72728 10 334.13 10 328.5 C 10 322.869 5.567 318.27172 0 318.01172 z M 0 322.01953 L 0 324.02734 C 2.25 324.27634 4 326.184 4 328.5 C 4 330.816 2.25 332.72266 0 332.97266 L 0 334.98047 C 3.356 334.72647 6 331.922 6 328.5 C 6 325.078 3.356 322.27353 0 322.01953 z M 29.5 324 L 34 324 L 34 333 L 29.5 333 C 27.015 333 25 330.985 25 328.5 C 25 326.015 27.015 324 29.5 324 z M 51 324 L 53 324 L 53 367 L 44.5 367 C 39.806 367 36 363.194 36 358.5 C 36 353.806 39.806 350 44.5 350 L 49 350 L 49 352 L 44.5 352 C 40.91 352 38 354.91 38 358.5 C 38 362.09 40.91 365 44.5 365 L 51 365 L 51 349 L 51 324 z M 66 335 L 74.5 335 C 79.194 335 83 338.806 83 343.5 C 83 348.194 79.194 352 74.5 352 L 55 352 L 55 350 L 74.5 350 C 78.09 350 81 347.09 81 343.5 C 81 339.91 78.09 337 74.5 337 L 68 337 L 68 348 L 66 348 L 66 335 z M 70 339 L 74.5 339 C 76.985 339 79 341.015 79 343.5 C 79 345.985 76.985 348 74.5 348 L 70 348 L 70 339 z M 104.5 339 L 109 339 L 109 348 L 104.5 348 C 102.015 348 100 345.985 100 343.5 C 100 341.015 102.015 339 104.5 339 z M 126 339 L 128 339 L 128 382 L 119.5 382 C 114.806 382 111 378.194 111 373.5 C 111 368.806 114.806 365 119.5 365 L 124 365 L 124 367 L 119.5 367 C 115.91 367 113 369.91 113 373.5 C 113 377.09 115.91 380 119.5 380 L 126 380 L 126 364 L 126 339 z M 4 348 L 4 363 L 0 363 L 0 365 L 14.5 365 C 18.09 365 21 362.09 21 358.5 C 21 354.91 18.09 352 14.5 352 L 8 352 L 8 363 L 6 363 L 6 350 L 14.5 350 C 19.194 350 23 353.806 23 358.5 C 23 363.194 19.194 367 14.5 367 L 0 367 L 0 369 L 4 369 L 4 393 L 0 393 L 0 395 L 4 395 L 4 397 L 0 397 L 0 399 L 4 399 L 4 405 L 4 408 L 0 408 L 0 410 L 6 410 L 6 405 L 6 369 L 8 369 L 8 405 L 8 412 L 0 412 L 0 414 L 10 414 L 10 405 L 10 399 L 19 399 L 19 405 L 19 423 L 14 423 L 14 423.01172 C 8.433 423.27172 4 427.87 4 433.5 C 4 439.13 8.433 443.72728 14 443.98828 L 14 444 L 25 444 L 25 429 L 34 429 L 34 453 L 29 453 L 29 453.01172 C 23.433 453.27172 19 457.869 19 463.5 C 19 469.13 23.433 473.72728 29 473.98828 L 29 474 L 40 474 L 40 459 L 49 459 L 49 483 L 44 483 L 44 483.01172 C 38.433 483.27172 34 487.869 34 493.5 C 34 499.13 38.433 503.72728 44 503.98828 L 44 504 L 55 504 L 55 489 L 64 489 L 64 513 L 59 513 L 59 513.01172 C 53.433 513.27172 49 517.869 49 523.5 C 49 529.13 53.433 533.72728 59 533.98828 L 59 534 L 70 534 L 70 519 L 79 519 L 79 540 L 79 543 L 74 543 L 74 543.01172 C 68.433 543.27172 64 547.869 64 553.5 C 64 559.13 68.433 563.72728 74 563.98828 L 74 564 L 85 564 L 85 549 L 94 549 L 94 573 L 89 573 L 89 573.01172 C 83.433 573.27172 79 577.869 79 583.5 C 79 589.13 83.433 593.72728 89 593.98828 L 89 594 L 100 594 L 100 579 L 109 579 L 109 603 L 104 603 L 104 603.01172 C 98.433 603.27172 94 607.869 94 613.5 C 94 619.13 98.433 623.72728 104 623.98828 L 104 624 L 115 624 L 115 609 L 124 609 L 124 633 L 119 633 L 119 633.01172 C 113.433 633.27172 109 637.869 109 643.5 C 109 649.13 113.433 653.72728 119 653.98828 L 119 654 L 130 654 L 130 639 L 135 639 L 135 637 L 130 637 L 130 635 L 135 635 L 135 633 L 130 633 L 130 609 L 135 609 L 135 606.98633 C 134.835 606.99633 134.668 607 134.5 607 L 115 607 L 115 605 L 134.5 605 C 134.668 605 134.835 604.99447 135 604.98047 L 135 602.97266 C 134.836 602.99066 134.67 603 134.5 603 L 130 603 L 130 594 L 134.5 594 C 134.67 594 134.836 594.01034 135 594.02734 L 135 592.01953 C 134.835 592.00553 134.668 592 134.5 592 L 128 592 L 128 603 L 126 603 L 126 590 L 134.5 590 C 134.668 590 134.835 590.00467 135 590.01367 L 135 588 L 124 588 L 124 603 L 115 603 L 115 579 L 120 579 L 120 578.98828 C 125.567 578.72828 130 574.131 130 568.5 C 130 562.87 125.567 558.27272 120 558.01172 L 120 558 L 109 558 L 109 573 L 100 573 L 100 549 L 105 549 L 105 548.98828 C 110.063 548.75128 114.19053 544.928 114.89453 540 C 114.96453 539.51 115 539.01 115 538.5 C 115 532.87 110.567 528.27272 105 528.01172 L 105 528 L 94 528 L 94 540 L 94 543 L 85 543 L 85 540 L 85 519 L 90 519 L 90 518.98828 C 95.567 518.72828 100 514.131 100 508.5 C 100 502.87 95.567 498.27272 90 498.01172 L 90 498 L 79 498 L 79 513 L 70 513 L 70 489 L 75 489 L 75 488.98828 C 80.567 488.72828 85 484.131 85 478.5 C 85 472.87 80.567 468.27272 75 468.01172 L 75 468 L 64 468 L 64 483 L 55 483 L 55 459 L 60 459 L 60 458.98828 C 65.567 458.72828 70 454.131 70 448.5 C 70 442.87 65.567 438.27272 60 438.01172 L 60 438 L 49 438 L 49 453 L 40 453 L 40 429 L 45 429 L 45 428.98828 C 50.567 428.72828 55 424.131 55 418.5 C 55 412.87 50.567 408.27272 45 408.01172 L 45 408 L 34 408 L 34 423 L 25 423 L 25 405 L 25 399 L 30 399 L 30 398.98828 C 35.567 398.72828 40 394.131 40 388.5 C 40 382.87 35.567 378.27272 30 378.01172 L 30 378 L 19 378 L 19 393 L 10 393 L 10 369 L 15 369 L 15 368.98828 C 20.567 368.72828 25 364.131 25 358.5 C 25 352.87 20.567 348.27272 15 348.01172 L 15 348 L 4 348 z M 10 354 L 14.5 354 C 16.985 354 19 356.015 19 358.5 C 19 360.985 16.985 363 14.5 363 L 10 363 L 10 354 z M 44.5 354 L 49 354 L 49 363 L 44.5 363 C 42.015 363 40 360.985 40 358.5 C 40 356.015 42.015 354 44.5 354 z M 66 354 L 68 354 L 68 397 L 59.5 397 C 54.806 397 51 393.194 51 388.5 C 51 383.806 54.806 380 59.5 380 L 64 380 L 64 382 L 59.5 382 C 55.91 382 53 384.91 53 388.5 C 53 392.09 55.91 395 59.5 395 L 66 395 L 66 379 L 66 354 z M 81 365 L 89.5 365 C 94.194 365 98 368.806 98 373.5 C 98 378.194 94.194 382 89.5 382 L 70 382 L 70 380 L 89.5 380 C 93.09 380 96 377.09 96 373.5 C 96 369.91 93.09 367 89.5 367 L 83 367 L 83 378 L 81 378 L 81 365 z M 85 369 L 89.5 369 C 91.985 369 94 371.015 94 373.5 C 94 375.985 91.985 378 89.5 378 L 85 378 L 85 369 z M 119.5 369 L 124 369 L 124 378 L 119.5 378 C 117.015 378 115 375.985 115 373.5 C 115 371.015 117.015 369 119.5 369 z M 21 380 L 29.5 380 C 34.194 380 38 383.806 38 388.5 C 38 393.194 34.194 397 29.5 397 L 10 397 L 10 395 L 29.5 395 C 33.09 395 36 392.09 36 388.5 C 36 384.91 33.09 382 29.5 382 L 23 382 L 23 393 L 21 393 L 21 380 z M 25 384 L 29.5 384 C 31.985 384 34 386.015 34 388.5 C 34 390.985 31.985 393 29.5 393 L 25 393 L 25 384 z M 59.5 384 L 64 384 L 64 393 L 59.5 393 C 57.015 393 55 390.985 55 388.5 C 55 386.015 57.015 384 59.5 384 z M 81 384 L 83 384 L 83 405 L 83 427 L 74.5 427 C 69.806 427 66 423.194 66 418.5 C 66 413.806 69.806 410 74.5 410 L 79 410 L 79 412 L 74.5 412 C 70.91 412 68 414.91 68 418.5 C 68 422.09 70.91 425 74.5 425 L 81 425 L 81 405 L 81 384 z M 134 393 L 134 393.01172 C 128.433 393.27272 124 397.87 124 403.5 C 124 404.01 124.03547 404.51 124.10547 405 C 124.80947 409.928 128.937 413.75128 134 413.98828 L 134 414 L 135 414 L 135 412 L 134.5 412 C 130.317 412 126.84081 408.98 126.13281 405 C 126.04581 404.513 126 404.012 126 403.5 C 126 398.806 129.806 395 134.5 395 L 135 395 L 135 393 L 134 393 z M 96 395 L 104.5 395 C 109.194 395 113 398.806 113 403.5 C 113 404.012 112.95419 404.513 112.86719 405 C 112.15919 408.98 108.683 412 104.5 412 L 85 412 L 85 410 L 104.5 410 C 107.574 410 110.15017 407.867 110.82617 405 C 110.94017 404.518 111 404.016 111 403.5 C 111 399.91 108.09 397 104.5 397 L 98 397 L 98 405 L 98 408 L 96 408 L 96 405 L 96 395 z M 134.5 397 C 130.91 397 128 399.91 128 403.5 C 128 404.016 128.05983 404.518 128.17383 405 C 128.84983 407.867 131.426 410 134.5 410 L 135 410 L 135 408 L 134.5 408 C 132.541 408 130.87386 406.748 130.25586 405 C 130.08986 404.53 130 404.026 130 403.5 C 130 401.015 132.015 399 134.5 399 L 135 399 L 135 397 L 134.5 397 z M 21 399 L 23 399 L 23 405 L 23 442 L 14.5 442 C 9.806 442 6 438.194 6 433.5 C 6 428.806 9.806 425 14.5 425 L 19 425 L 19 427 L 14.5 427 C 10.91 427 8 429.91 8 433.5 C 8 437.09 10.91 440 14.5 440 L 21 440 L 21 405 L 21 399 z M 100 399 L 104.5 399 C 106.985 399 109 401.015 109 403.5 C 109 404.026 108.91014 404.53 108.74414 405 C 108.12614 406.748 106.459 408 104.5 408 L 100 408 L 100 405 L 100 399 z M 36 410 L 44.5 410 C 49.194 410 53 413.806 53 418.5 C 53 423.194 49.194 427 44.5 427 L 25 427 L 25 425 L 44.5 425 C 48.09 425 51 422.09 51 418.5 C 51 414.91 48.09 412 44.5 412 L 38 412 L 38 423 L 36 423 L 36 410 z M 40 414 L 44.5 414 C 46.985 414 49 416.015 49 418.5 C 49 420.985 46.985 423 44.5 423 L 40 423 L 40 414 z M 74.5 414 L 79 414 L 79 423 L 74.5 423 C 72.015 423 70 420.985 70 418.5 C 70 416.015 72.015 414 74.5 414 z M 96 414 L 98 414 L 98 457 L 89.5 457 C 84.806 457 81 453.194 81 448.5 C 81 443.806 84.806 440 89.5 440 L 94 440 L 94 442 L 89.5 442 C 85.91 442 83 444.91 83 448.5 C 83 452.09 85.91 455 89.5 455 L 96 455 L 96 439 L 96 414 z M 111 425 L 119.5 425 C 124.194 425 128 428.806 128 433.5 C 128 438.194 124.194 442 119.5 442 L 100 442 L 100 440 L 119.5 440 C 123.09 440 126 437.09 126 433.5 C 126 429.91 123.09 427 119.5 427 L 113 427 L 113 438 L 111 438 L 111 425 z M 14.5 429 L 19 429 L 19 438 L 14.5 438 C 12.015 438 10 435.985 10 433.5 C 10 431.015 12.015 429 14.5 429 z M 36 429 L 38 429 L 38 472 L 29.5 472 C 24.806 472 21 468.194 21 463.5 C 21 458.806 24.806 455 29.5 455 L 34 455 L 34 457 L 29.5 457 C 25.91 457 23 459.91 23 463.5 C 23 467.09 25.91 470 29.5 470 L 36 470 L 36 454 L 36 429 z M 115 429 L 119.5 429 C 121.985 429 124 431.015 124 433.5 C 124 435.985 121.985 438 119.5 438 L 115 438 L 115 429 z M 51 440 L 59.5 440 C 64.194 440 68 443.806 68 448.5 C 68 453.194 64.194 457 59.5 457 L 40 457 L 40 455 L 59.5 455 C 63.09 455 66 452.09 66 448.5 C 66 444.91 63.09 442 59.5 442 L 53 442 L 53 453 L 51 453 L 51 440 z M 55 444 L 59.5 444 C 61.985 444 64 446.015 64 448.5 C 64 450.985 61.985 453 59.5 453 L 55 453 L 55 444 z M 89.5 444 L 94 444 L 94 453 L 89.5 453 C 87.015 453 85 450.985 85 448.5 C 85 446.015 87.015 444 89.5 444 z M 111 444 L 113 444 L 113 487 L 104.5 487 C 99.806 487 96 483.194 96 478.5 C 96 473.806 99.806 470 104.5 470 L 109 470 L 109 472 L 104.5 472 C 100.91 472 98 474.91 98 478.5 C 98 482.09 100.91 485 104.5 485 L 111 485 L 111 469 L 111 444 z M 0 453.01172 L 0 455.01367 C 4.462 455.27267 8 458.973 8 463.5 C 8 468.026 4.462 471.72633 0 471.98633 L 0 473.98828 C 5.567 473.72728 10 469.13 10 463.5 C 10 457.869 5.567 453.27172 0 453.01172 z M 0 457.01953 L 0 459.02734 C 2.25 459.27634 4 461.184 4 463.5 C 4 465.816 2.25 467.72266 0 467.97266 L 0 469.98047 C 3.356 469.72647 6 466.922 6 463.5 C 6 460.078 3.356 457.27353 0 457.01953 z M 29.5 459 L 34 459 L 34 468 L 29.5 468 C 27.015 468 25 465.985 25 463.5 C 25 461.015 27.015 459 29.5 459 z M 51 459 L 53 459 L 53 502 L 44.5 502 C 39.806 502 36 498.194 36 493.5 C 36 488.806 39.806 485 44.5 485 L 49 485 L 49 487 L 44.5 487 C 40.91 487 38 489.91 38 493.5 C 38 497.09 40.91 500 44.5 500 L 51 500 L 51 484 L 51 459 z M 66 470 L 74.5 470 C 79.194 470 83 473.806 83 478.5 C 83 483.194 79.194 487 74.5 487 L 55 487 L 55 485 L 74.5 485 C 78.09 485 81 482.09 81 478.5 C 81 474.91 78.09 472 74.5 472 L 68 472 L 68 483 L 66 483 L 66 470 z M 70 474 L 74.5 474 C 76.985 474 79 476.015 79 478.5 C 79 480.985 76.985 483 74.5 483 L 70 483 L 70 474 z M 104.5 474 L 109 474 L 109 483 L 104.5 483 C 102.015 483 100 480.985 100 478.5 C 100 476.015 102.015 474 104.5 474 z M 126 474 L 128 474 L 128 517 L 119.5 517 C 114.806 517 111 513.194 111 508.5 C 111 503.806 114.806 500 119.5 500 L 124 500 L 124 502 L 119.5 502 C 115.91 502 113 504.91 113 508.5 C 113 512.09 115.91 515 119.5 515 L 126 515 L 126 499 L 126 474 z M 4 483 L 4 498 L 0 498 L 0 500 L 14.5 500 C 18.09 500 21 497.09 21 493.5 C 21 489.91 18.09 487 14.5 487 L 8 487 L 8 498 L 6 498 L 6 485 L 14.5 485 C 19.194 485 23 488.806 23 493.5 C 23 498.194 19.194 502 14.5 502 L 0 502 L 0 504 L 4 504 L 4 528 L 0 528 L 0 530 L 4 530 L 4 532 L 0 532 L 0 534 L 4 534 L 4 540 L 4 543 L 0 543 L 0 545 L 6 545 L 6 540 L 6 504 L 8 504 L 8 540 L 8 547 L 0 547 L 0 549 L 10 549 L 10 540 L 10 534 L 19 534 L 19 540 L 19 558 L 14 558 L 14 558.01172 C 8.433 558.27172 4 562.87 4 568.5 C 4 574.13 8.433 578.72728 14 578.98828 L 14 579 L 25 579 L 25 564 L 34 564 L 34 588 L 29 588 L 29 588.01172 C 23.433 588.27172 19 592.869 19 598.5 C 19 604.13 23.433 608.72728 29 608.98828 L 29 609 L 40 609 L 40 594 L 49 594 L 49 618 L 44 618 L 44 618.01172 C 38.433 618.27172 34 622.869 34 628.5 C 34 634.13 38.433 638.72728 44 638.98828 L 44 639 L 55 639 L 55 624 L 64 624 L 64 648 L 59 648 L 59 648.01172 C 53.433 648.27172 49 652.869 49 658.5 C 49 664.13 53.433 668.72728 59 668.98828 L 59 669 L 70 669 L 70 654 L 79 654 L 79 675 L 79 678 L 74 678 L 74 678.01172 C 68.433 678.27172 64 682.869 64 688.5 C 64 694.13 68.433 698.72728 74 698.98828 L 74 699 L 85 699 L 85 684 L 94 684 L 94 708 L 89 708 L 89 708.01172 C 83.433 708.27172 79 712.869 79 718.5 C 79 724.13 83.433 728.72728 89 728.98828 L 89 729 L 100 729 L 100 714 L 109 714 L 109 738 L 104 738 L 104 738.01172 C 98.433 738.27172 94 742.869 94 748.5 C 94 754.13 98.433 758.72728 104 758.98828 L 104 759 L 115 759 L 115 744 L 124 744 L 124 768 L 119 768 L 119 768.01172 C 113.433 768.27172 109 772.869 109 778.5 C 109 784.13 113.433 788.72728 119 788.98828 L 119 789 L 130 789 L 130 774 L 135 774 L 135 772 L 130 772 L 130 770 L 135 770 L 135 768 L 130 768 L 130 744 L 135 744 L 135 741.98633 C 134.835 741.99633 134.668 742 134.5 742 L 115 742 L 115 740 L 134.5 740 C 134.668 740 134.835 739.99447 135 739.98047 L 135 737.97266 C 134.836 737.99066 134.67 738 134.5 738 L 130 738 L 130 729 L 134.5 729 C 134.67 729 134.836 729.01034 135 729.02734 L 135 727.01953 C 134.835 727.00553 134.668 727 134.5 727 L 128 727 L 128 738 L 126 738 L 126 725 L 134.5 725 C 134.668 725 134.835 725.00467 135 725.01367 L 135 723 L 124 723 L 124 738 L 115 738 L 115 714 L 120 714 L 120 713.98828 C 125.567 713.72828 130 709.131 130 703.5 C 130 697.87 125.567 693.27272 120 693.01172 L 120 693 L 109 693 L 109 708 L 100 708 L 100 684 L 105 684 L 105 683.98828 C 110.063 683.75128 114.19053 679.928 114.89453 675 C 114.96453 674.51 115 674.01 115 673.5 C 115 667.87 110.567 663.27272 105 663.01172 L 105 663 L 94 663 L 94 675 L 94 678 L 85 678 L 85 675 L 85 654 L 90 654 L 90 653.98828 C 95.567 653.72828 100 649.131 100 643.5 C 100 637.87 95.567 633.27272 90 633.01172 L 90 633 L 79 633 L 79 648 L 70 648 L 70 624 L 75 624 L 75 623.98828 C 80.567 623.72828 85 619.131 85 613.5 C 85 607.87 80.567 603.27272 75 603.01172 L 75 603 L 64 603 L 64 618 L 55 618 L 55 594 L 60 594 L 60 593.98828 C 65.567 593.72828 70 589.131 70 583.5 C 70 577.87 65.567 573.27272 60 573.01172 L 60 573 L 49 573 L 49 588 L 40 588 L 40 564 L 45 564 L 45 563.98828 C 50.567 563.72828 55 559.131 55 553.5 C 55 547.87 50.567 543.27272 45 543.01172 L 45 543 L 34 543 L 34 558 L 25 558 L 25 540 L 25 534 L 30 534 L 30 533.98828 C 35.567 533.72828 40 529.131 40 523.5 C 40 517.87 35.567 513.27272 30 513.01172 L 30 513 L 19 513 L 19 528 L 10 528 L 10 504 L 15 504 L 15 503.98828 C 20.567 503.72828 25 499.131 25 493.5 C 25 487.87 20.567 483.27272 15 483.01172 L 15 483 L 4 483 z M 10 489 L 14.5 489 C 16.985 489 19 491.015 19 493.5 C 19 495.985 16.985 498 14.5 498 L 10 498 L 10 489 z M 44.5 489 L 49 489 L 49 498 L 44.5 498 C 42.015 498 40 495.985 40 493.5 C 40 491.015 42.015 489 44.5 489 z M 66 489 L 68 489 L 68 532 L 59.5 532 C 54.806 532 51 528.194 51 523.5 C 51 518.806 54.806 515 59.5 515 L 64 515 L 64 517 L 59.5 517 C 55.91 517 53 519.91 53 523.5 C 53 527.09 55.91 530 59.5 530 L 66 530 L 66 514 L 66 489 z M 81 500 L 89.5 500 C 94.194 500 98 503.806 98 508.5 C 98 513.194 94.194 517 89.5 517 L 70 517 L 70 515 L 89.5 515 C 93.09 515 96 512.09 96 508.5 C 96 504.91 93.09 502 89.5 502 L 83 502 L 83 513 L 81 513 L 81 500 z M 85 504 L 89.5 504 C 91.985 504 94 506.015 94 508.5 C 94 510.985 91.985 513 89.5 513 L 85 513 L 85 504 z M 119.5 504 L 124 504 L 124 513 L 119.5 513 C 117.015 513 115 510.985 115 508.5 C 115 506.015 117.015 504 119.5 504 z M 21 515 L 29.5 515 C 34.194 515 38 518.806 38 523.5 C 38 528.194 34.194 532 29.5 532 L 10 532 L 10 530 L 29.5 530 C 33.09 530 36 527.09 36 523.5 C 36 519.91 33.09 517 29.5 517 L 23 517 L 23 528 L 21 528 L 21 515 z M 25 519 L 29.5 519 C 31.985 519 34 521.015 34 523.5 C 34 525.985 31.985 528 29.5 528 L 25 528 L 25 519 z M 59.5 519 L 64 519 L 64 528 L 59.5 528 C 57.015 528 55 525.985 55 523.5 C 55 521.015 57.015 519 59.5 519 z M 81 519 L 83 519 L 83 540 L 83 562 L 74.5 562 C 69.806 562 66 558.194 66 553.5 C 66 548.806 69.806 545 74.5 545 L 79 545 L 79 547 L 74.5 547 C 70.91 547 68 549.91 68 553.5 C 68 557.09 70.91 560 74.5 560 L 81 560 L 81 540 L 81 519 z M 134 528 L 134 528.01172 C 128.433 528.27272 124 532.87 124 538.5 C 124 539.01 124.03547 539.51 124.10547 540 C 124.80947 544.928 128.937 548.75128 134 548.98828 L 134 549 L 135 549 L 135 547 L 134.5 547 C 130.317 547 126.84081 543.98 126.13281 540 C 126.04581 539.513 126 539.012 126 538.5 C 126 533.806 129.806 530 134.5 530 L 135 530 L 135 528 L 134 528 z M 96 530 L 104.5 530 C 109.194 530 113 533.806 113 538.5 C 113 539.012 112.95419 539.513 112.86719 540 C 112.15919 543.98 108.683 547 104.5 547 L 85 547 L 85 545 L 104.5 545 C 107.574 545 110.15017 542.867 110.82617 540 C 110.94017 539.518 111 539.016 111 538.5 C 111 534.91 108.09 532 104.5 532 L 98 532 L 98 540 L 98 543 L 96 543 L 96 540 L 96 530 z M 134.5 532 C 130.91 532 128 534.91 128 538.5 C 128 539.016 128.05983 539.518 128.17383 540 C 128.84983 542.867 131.426 545 134.5 545 L 135 545 L 135 543 L 134.5 543 C 132.541 543 130.87386 541.748 130.25586 540 C 130.08986 539.53 130 539.026 130 538.5 C 130 536.015 132.015 534 134.5 534 L 135 534 L 135 532 L 134.5 532 z M 21 534 L 23 534 L 23 540 L 23 577 L 14.5 577 C 9.806 577 6 573.194 6 568.5 C 6 563.806 9.806 560 14.5 560 L 19 560 L 19 562 L 14.5 562 C 10.91 562 8 564.91 8 568.5 C 8 572.09 10.91 575 14.5 575 L 21 575 L 21 540 L 21 534 z M 100 534 L 104.5 534 C 106.985 534 109 536.015 109 538.5 C 109 539.026 108.91014 539.53 108.74414 540 C 108.12614 541.748 106.459 543 104.5 543 L 100 543 L 100 540 L 100 534 z M 36 545 L 44.5 545 C 49.194 545 53 548.806 53 553.5 C 53 558.194 49.194 562 44.5 562 L 25 562 L 25 560 L 44.5 560 C 48.09 560 51 557.09 51 553.5 C 51 549.91 48.09 547 44.5 547 L 38 547 L 38 558 L 36 558 L 36 545 z M 40 549 L 44.5 549 C 46.985 549 49 551.015 49 553.5 C 49 555.985 46.985 558 44.5 558 L 40 558 L 40 549 z M 74.5 549 L 79 549 L 79 558 L 74.5 558 C 72.015 558 70 555.985 70 553.5 C 70 551.015 72.015 549 74.5 549 z M 96 549 L 98 549 L 98 592 L 89.5 592 C 84.806 592 81 588.194 81 583.5 C 81 578.806 84.806 575 89.5 575 L 94 575 L 94 577 L 89.5 577 C 85.91 577 83 579.91 83 583.5 C 83 587.09 85.91 590 89.5 590 L 96 590 L 96 574 L 96 549 z M 111 560 L 119.5 560 C 124.194 560 128 563.806 128 568.5 C 128 573.194 124.194 577 119.5 577 L 100 577 L 100 575 L 119.5 575 C 123.09 575 126 572.09 126 568.5 C 126 564.91 123.09 562 119.5 562 L 113 562 L 113 573 L 111 573 L 111 560 z M 14.5 564 L 19 564 L 19 573 L 14.5 573 C 12.015 573 10 570.985 10 568.5 C 10 566.015 12.015 564 14.5 564 z M 36 564 L 38 564 L 38 607 L 29.5 607 C 24.806 607 21 603.194 21 598.5 C 21 593.806 24.806 590 29.5 590 L 34 590 L 34 592 L 29.5 592 C 25.91 592 23 594.91 23 598.5 C 23 602.09 25.91 605 29.5 605 L 36 605 L 36 589 L 36 564 z M 115 564 L 119.5 564 C 121.985 564 124 566.015 124 568.5 C 124 570.985 121.985 573 119.5 573 L 115 573 L 115 564 z M 51 575 L 59.5 575 C 64.194 575 68 578.806 68 583.5 C 68 588.194 64.194 592 59.5 592 L 40 592 L 40 590 L 59.5 590 C 63.09 590 66 587.09 66 583.5 C 66 579.91 63.09 577 59.5 577 L 53 577 L 53 588 L 51 588 L 51 575 z M 55 579 L 59.5 579 C 61.985 579 64 581.015 64 583.5 C 64 585.985 61.985 588 59.5 588 L 55 588 L 55 579 z M 89.5 579 L 94 579 L 94 588 L 89.5 588 C 87.015 588 85 585.985 85 583.5 C 85 581.015 87.015 579 89.5 579 z M 111 579 L 113 579 L 113 622 L 104.5 622 C 99.806 622 96 618.194 96 613.5 C 96 608.806 99.806 605 104.5 605 L 109 605 L 109 607 L 104.5 607 C 100.91 607 98 609.91 98 613.5 C 98 617.09 100.91 620 104.5 620 L 111 620 L 111 604 L 111 579 z M 0 588.01172 L 0 590.01367 C 4.462 590.27267 8 593.973 8 598.5 C 8 603.026 4.462 606.72633 0 606.98633 L 0 608.98828 C 5.567 608.72728 10 604.13 10 598.5 C 10 592.869 5.567 588.27172 0 588.01172 z M 0 592.01953 L 0 594.02734 C 2.25 594.27634 4 596.184 4 598.5 C 4 600.816 2.25 602.72266 0 602.97266 L 0 604.98047 C 3.356 604.72647 6 601.922 6 598.5 C 6 595.078 3.356 592.27353 0 592.01953 z M 29.5 594 L 34 594 L 34 603 L 29.5 603 C 27.015 603 25 600.985 25 598.5 C 25 596.015 27.015 594 29.5 594 z M 51 594 L 53 594 L 53 637 L 44.5 637 C 39.806 637 36 633.194 36 628.5 C 36 623.806 39.806 620 44.5 620 L 49 620 L 49 622 L 44.5 622 C 40.91 622 38 624.91 38 628.5 C 38 632.09 40.91 635 44.5 635 L 51 635 L 51 619 L 51 594 z M 66 605 L 74.5 605 C 79.194 605 83 608.806 83 613.5 C 83 618.194 79.194 622 74.5 622 L 55 622 L 55 620 L 74.5 620 C 78.09 620 81 617.09 81 613.5 C 81 609.91 78.09 607 74.5 607 L 68 607 L 68 618 L 66 618 L 66 605 z M 70 609 L 74.5 609 C 76.985 609 79 611.015 79 613.5 C 79 615.985 76.985 618 74.5 618 L 70 618 L 70 609 z M 104.5 609 L 109 609 L 109 618 L 104.5 618 C 102.015 618 100 615.985 100 613.5 C 100 611.015 102.015 609 104.5 609 z M 126 609 L 128 609 L 128 652 L 119.5 652 C 114.806 652 111 648.194 111 643.5 C 111 638.806 114.806 635 119.5 635 L 124 635 L 124 637 L 119.5 637 C 115.91 637 113 639.91 113 643.5 C 113 647.09 115.91 650 119.5 650 L 126 650 L 126 634 L 126 609 z M 4 618 L 4 633 L 0 633 L 0 635 L 14.5 635 C 18.09 635 21 632.09 21 628.5 C 21 624.91 18.09 622 14.5 622 L 8 622 L 8 633 L 6 633 L 6 620 L 14.5 620 C 19.194 620 23 623.806 23 628.5 C 23 633.194 19.194 637 14.5 637 L 0 637 L 0 639 L 4 639 L 4 663 L 0 663 L 0 665 L 4 665 L 4 667 L 0 667 L 0 669 L 4 669 L 4 675 L 4 678 L 0 678 L 0 680 L 6 680 L 6 675 L 6 639 L 8 639 L 8 675 L 8 682 L 0 682 L 0 684 L 10 684 L 10 675 L 10 669 L 19 669 L 19 675 L 19 693 L 14 693 L 14 693.01172 C 8.433 693.27172 4 697.87 4 703.5 C 4 709.13 8.433 713.72728 14 713.98828 L 14 714 L 25 714 L 25 699 L 34 699 L 34 723 L 29 723 L 29 723.01172 C 23.433 723.27172 19 727.869 19 733.5 C 19 739.13 23.433 743.72728 29 743.98828 L 29 744 L 40 744 L 40 729 L 49 729 L 49 753 L 44 753 L 44 753.01172 C 38.433 753.27172 34 757.869 34 763.5 C 34 769.13 38.433 773.72728 44 773.98828 L 44 774 L 55 774 L 55 759 L 64 759 L 64 783 L 59 783 L 59 783.01172 C 53.433 783.27172 49 787.869 49 793.5 C 49 799.13 53.433 803.72728 59 803.98828 L 59 804 L 70 804 L 70 789 L 79 789 L 79 810 L 81 810 L 81 789 L 83 789 L 83 810 L 85 810 L 85 789 L 90 789 L 90 788.98828 C 95.567 788.72828 100 784.131 100 778.5 C 100 772.87 95.567 768.27272 90 768.01172 L 90 768 L 79 768 L 79 783 L 70 783 L 70 759 L 75 759 L 75 758.98828 C 80.567 758.72828 85 754.131 85 748.5 C 85 742.87 80.567 738.27272 75 738.01172 L 75 738 L 64 738 L 64 753 L 55 753 L 55 729 L 60 729 L 60 728.98828 C 65.567 728.72828 70 724.131 70 718.5 C 70 712.87 65.567 708.27272 60 708.01172 L 60 708 L 49 708 L 49 723 L 40 723 L 40 699 L 45 699 L 45 698.98828 C 50.567 698.72828 55 694.131 55 688.5 C 55 682.87 50.567 678.27272 45 678.01172 L 45 678 L 34 678 L 34 693 L 25 693 L 25 675 L 25 669 L 30 669 L 30 668.98828 C 35.567 668.72828 40 664.131 40 658.5 C 40 652.87 35.567 648.27272 30 648.01172 L 30 648 L 19 648 L 19 663 L 10 663 L 10 639 L 15 639 L 15 638.98828 C 20.567 638.72828 25 634.131 25 628.5 C 25 622.87 20.567 618.27272 15 618.01172 L 15 618 L 4 618 z M 10 624 L 14.5 624 C 16.985 624 19 626.015 19 628.5 C 19 630.985 16.985 633 14.5 633 L 10 633 L 10 624 z M 44.5 624 L 49 624 L 49 633 L 44.5 633 C 42.015 633 40 630.985 40 628.5 C 40 626.015 42.015 624 44.5 624 z M 66 624 L 68 624 L 68 667 L 59.5 667 C 54.806 667 51 663.194 51 658.5 C 51 653.806 54.806 650 59.5 650 L 64 650 L 64 652 L 59.5 652 C 55.91 652 53 654.91 53 658.5 C 53 662.09 55.91 665 59.5 665 L 66 665 L 66 649 L 66 624 z M 81 635 L 89.5 635 C 94.194 635 98 638.806 98 643.5 C 98 648.194 94.194 652 89.5 652 L 70 652 L 70 650 L 89.5 650 C 93.09 650 96 647.09 96 643.5 C 96 639.91 93.09 637 89.5 637 L 83 637 L 83 648 L 81 648 L 81 635 z M 85 639 L 89.5 639 C 91.985 639 94 641.015 94 643.5 C 94 645.985 91.985 648 89.5 648 L 85 648 L 85 639 z M 119.5 639 L 124 639 L 124 648 L 119.5 648 C 117.015 648 115 645.985 115 643.5 C 115 641.015 117.015 639 119.5 639 z M 21 650 L 29.5 650 C 34.194 650 38 653.806 38 658.5 C 38 663.194 34.194 667 29.5 667 L 10 667 L 10 665 L 29.5 665 C 33.09 665 36 662.09 36 658.5 C 36 654.91 33.09 652 29.5 652 L 23 652 L 23 663 L 21 663 L 21 650 z M 25 654 L 29.5 654 C 31.985 654 34 656.015 34 658.5 C 34 660.985 31.985 663 29.5 663 L 25 663 L 25 654 z M 59.5 654 L 64 654 L 64 663 L 59.5 663 C 57.015 663 55 660.985 55 658.5 C 55 656.015 57.015 654 59.5 654 z M 81 654 L 83 654 L 83 675 L 83 697 L 74.5 697 C 69.806 697 66 693.194 66 688.5 C 66 683.806 69.806 680 74.5 680 L 79 680 L 79 682 L 74.5 682 C 70.91 682 68 684.91 68 688.5 C 68 692.09 70.91 695 74.5 695 L 81 695 L 81 675 L 81 654 z M 134 663 L 134 663.01172 C 128.433 663.27272 124 667.87 124 673.5 C 124 674.01 124.03547 674.51 124.10547 675 C 124.80947 679.928 128.937 683.75128 134 683.98828 L 134 684 L 135 684 L 135 682 L 134.5 682 C 130.317 682 126.84081 678.98 126.13281 675 C 126.04581 674.513 126 674.012 126 673.5 C 126 668.806 129.806 665 134.5 665 L 135 665 L 135 663 L 134 663 z M 96 665 L 104.5 665 C 109.194 665 113 668.806 113 673.5 C 113 674.012 112.95419 674.513 112.86719 675 C 112.15919 678.98 108.683 682 104.5 682 L 85 682 L 85 680 L 104.5 680 C 107.574 680 110.15017 677.867 110.82617 675 C 110.94017 674.518 111 674.016 111 673.5 C 111 669.91 108.09 667 104.5 667 L 98 667 L 98 675 L 98 678 L 96 678 L 96 675 L 96 665 z M 134.5 667 C 130.91 667 128 669.91 128 673.5 C 128 674.016 128.05983 674.518 128.17383 675 C 128.84983 677.867 131.426 680 134.5 680 L 135 680 L 135 678 L 134.5 678 C 132.541 678 130.87386 676.748 130.25586 675 C 130.08986 674.53 130 674.026 130 673.5 C 130 671.015 132.015 669 134.5 669 L 135 669 L 135 667 L 134.5 667 z M 21 669 L 23 669 L 23 675 L 23 712 L 14.5 712 C 9.806 712 6 708.194 6 703.5 C 6 698.806 9.806 695 14.5 695 L 19 695 L 19 697 L 14.5 697 C 10.91 697 8 699.91 8 703.5 C 8 707.09 10.91 710 14.5 710 L 21 710 L 21 675 L 21 669 z M 100 669 L 104.5 669 C 106.985 669 109 671.015 109 673.5 C 109 674.026 108.91014 674.53 108.74414 675 C 108.12614 676.748 106.459 678 104.5 678 L 100 678 L 100 675 L 100 669 z M 36 680 L 44.5 680 C 49.194 680 53 683.806 53 688.5 C 53 693.194 49.194 697 44.5 697 L 25 697 L 25 695 L 44.5 695 C 48.09 695 51 692.09 51 688.5 C 51 684.91 48.09 682 44.5 682 L 38 682 L 38 693 L 36 693 L 36 680 z M 40 684 L 44.5 684 C 46.985 684 49 686.015 49 688.5 C 49 690.985 46.985 693 44.5 693 L 40 693 L 40 684 z M 74.5 684 L 79 684 L 79 693 L 74.5 693 C 72.015 693 70 690.985 70 688.5 C 70 686.015 72.015 684 74.5 684 z M 96 684 L 98 684 L 98 727 L 89.5 727 C 84.806 727 81 723.194 81 718.5 C 81 713.806 84.806 710 89.5 710 L 94 710 L 94 712 L 89.5 712 C 85.91 712 83 714.91 83 718.5 C 83 722.09 85.91 725 89.5 725 L 96 725 L 96 709 L 96 684 z M 111 695 L 119.5 695 C 124.194 695 128 698.806 128 703.5 C 128 708.194 124.194 712 119.5 712 L 100 712 L 100 710 L 119.5 710 C 123.09 710 126 707.09 126 703.5 C 126 699.91 123.09 697 119.5 697 L 113 697 L 113 708 L 111 708 L 111 695 z M 14.5 699 L 19 699 L 19 708 L 14.5 708 C 12.015 708 10 705.985 10 703.5 C 10 701.015 12.015 699 14.5 699 z M 36 699 L 38 699 L 38 742 L 29.5 742 C 24.806 742 21 738.194 21 733.5 C 21 728.806 24.806 725 29.5 725 L 34 725 L 34 727 L 29.5 727 C 25.91 727 23 729.91 23 733.5 C 23 737.09 25.91 740 29.5 740 L 36 740 L 36 724 L 36 699 z M 115 699 L 119.5 699 C 121.985 699 124 701.015 124 703.5 C 124 705.985 121.985 708 119.5 708 L 115 708 L 115 699 z M 51 710 L 59.5 710 C 64.194 710 68 713.806 68 718.5 C 68 723.194 64.194 727 59.5 727 L 40 727 L 40 725 L 59.5 725 C 63.09 725 66 722.09 66 718.5 C 66 714.91 63.09 712 59.5 712 L 53 712 L 53 723 L 51 723 L 51 710 z M 55 714 L 59.5 714 C 61.985 714 64 716.015 64 718.5 C 64 720.985 61.985 723 59.5 723 L 55 723 L 55 714 z M 89.5 714 L 94 714 L 94 723 L 89.5 723 C 87.015 723 85 720.985 85 718.5 C 85 716.015 87.015 714 89.5 714 z M 111 714 L 113 714 L 113 757 L 104.5 757 C 99.806 757 96 753.194 96 748.5 C 96 743.806 99.806 740 104.5 740 L 109 740 L 109 742 L 104.5 742 C 100.91 742 98 744.91 98 748.5 C 98 752.09 100.91 755 104.5 755 L 111 755 L 111 739 L 111 714 z M 0 723.01172 L 0 725.01367 C 4.462 725.27267 8 728.973 8 733.5 C 8 738.026 4.462 741.72633 0 741.98633 L 0 743.98828 C 5.567 743.72728 10 739.13 10 733.5 C 10 727.869 5.567 723.27172 0 723.01172 z M 0 727.01953 L 0 729.02734 C 2.25 729.27634 4 731.184 4 733.5 C 4 735.816 2.25 737.72266 0 737.97266 L 0 739.98047 C 3.356 739.72647 6 736.922 6 733.5 C 6 730.078 3.356 727.27353 0 727.01953 z M 29.5 729 L 34 729 L 34 738 L 29.5 738 C 27.015 738 25 735.985 25 733.5 C 25 731.015 27.015 729 29.5 729 z M 51 729 L 53 729 L 53 772 L 44.5 772 C 39.806 772 36 768.194 36 763.5 C 36 758.806 39.806 755 44.5 755 L 49 755 L 49 757 L 44.5 757 C 40.91 757 38 759.91 38 763.5 C 38 767.09 40.91 770 44.5 770 L 51 770 L 51 754 L 51 729 z M 66 740 L 74.5 740 C 79.194 740 83 743.806 83 748.5 C 83 753.194 79.194 757 74.5 757 L 55 757 L 55 755 L 74.5 755 C 78.09 755 81 752.09 81 748.5 C 81 744.91 78.09 742 74.5 742 L 68 742 L 68 753 L 66 753 L 66 740 z M 70 744 L 74.5 744 C 76.985 744 79 746.015 79 748.5 C 79 750.985 76.985 753 74.5 753 L 70 753 L 70 744 z M 104.5 744 L 109 744 L 109 753 L 104.5 753 C 102.015 753 100 750.985 100 748.5 C 100 746.015 102.015 744 104.5 744 z M 126 744 L 128 744 L 128 787 L 119.5 787 C 114.806 787 111 783.194 111 778.5 C 111 773.806 114.806 770 119.5 770 L 124 770 L 124 772 L 119.5 772 C 115.91 772 113 774.91 113 778.5 C 113 782.09 115.91 785 119.5 785 L 126 785 L 126 769 L 126 744 z M 4 753 L 4 768 L 0 768 L 0 770 L 14.5 770 C 18.09 770 21 767.09 21 763.5 C 21 759.91 18.09 757 14.5 757 L 8 757 L 8 768 L 6 768 L 6 755 L 14.5 755 C 19.194 755 23 758.806 23 763.5 C 23 768.194 19.194 772 14.5 772 L 0 772 L 0 774 L 4 774 L 4 798 L 0 798 L 0 800 L 4 800 L 4 802 L 0 802 L 0 804 L 4 804 L 4 810 L 6 810 L 6 774 L 8 774 L 8 810 L 10 810 L 10 804 L 19 804 L 19 810 L 21 810 L 21 804 L 23 804 L 23 810 L 25 810 L 25 804 L 30 804 L 30 803.98828 C 35.567 803.72828 40 799.131 40 793.5 C 40 787.87 35.567 783.27272 30 783.01172 L 30 783 L 19 783 L 19 798 L 10 798 L 10 774 L 15 774 L 15 773.98828 C 20.567 773.72828 25 769.131 25 763.5 C 25 757.87 20.567 753.27272 15 753.01172 L 15 753 L 4 753 z M 10 759 L 14.5 759 C 16.985 759 19 761.015 19 763.5 C 19 765.985 16.985 768 14.5 768 L 10 768 L 10 759 z M 44.5 759 L 49 759 L 49 768 L 44.5 768 C 42.015 768 40 765.985 40 763.5 C 40 761.015 42.015 759 44.5 759 z M 66 759 L 68 759 L 68 802 L 59.5 802 C 54.806 802 51 798.194 51 793.5 C 51 788.806 54.806 785 59.5 785 L 64 785 L 64 787 L 59.5 787 C 55.91 787 53 789.91 53 793.5 C 53 797.09 55.91 800 59.5 800 L 66 800 L 66 784 L 66 759 z M 81 770 L 89.5 770 C 94.194 770 98 773.806 98 778.5 C 98 783.194 94.194 787 89.5 787 L 70 787 L 70 785 L 89.5 785 C 93.09 785 96 782.09 96 778.5 C 96 774.91 93.09 772 89.5 772 L 83 772 L 83 783 L 81 783 L 81 770 z M 85 774 L 89.5 774 C 91.985 774 94 776.015 94 778.5 C 94 780.985 91.985 783 89.5 783 L 85 783 L 85 774 z M 119.5 774 L 124 774 L 124 783 L 119.5 783 C 117.015 783 115 780.985 115 778.5 C 115 776.015 117.015 774 119.5 774 z M 21 785 L 29.5 785 C 34.194 785 38 788.806 38 793.5 C 38 798.194 34.194 802 29.5 802 L 10 802 L 10 800 L 29.5 800 C 33.09 800 36 797.09 36 793.5 C 36 789.91 33.09 787 29.5 787 L 23 787 L 23 798 L 21 798 L 21 785 z M 25 789 L 29.5 789 C 31.985 789 34 791.015 34 793.5 C 34 795.985 31.985 798 29.5 798 L 25 798 L 25 789 z M 59.5 789 L 64 789 L 64 798 L 59.5 798 C 57.015 798 55 795.985 55 793.5 C 55 791.015 57.015 789 59.5 789 z M 94 798 L 94 810 L 96 810 L 96 800 L 104.5 800 C 109.194 800 113 803.806 113 808.5 C 113 809.012 112.95419 809.513 112.86719 810 L 114.89453 810 C 114.96453 809.51 115 809.01 115 808.5 C 115 802.87 110.567 798.27272 105 798.01172 L 105 798 L 94 798 z M 134 798 L 134 798.01172 C 128.433 798.27272 124 802.87 124 808.5 C 124 809.01 124.03547 809.51 124.10547 810 L 126.13281 810 C 126.04581 809.513 126 809.012 126 808.5 C 126 803.806 129.806 800 134.5 800 L 135 800 L 135 798 L 134 798 z M 98 802 L 98 810 L 100 810 L 100 804 L 104.5 804 C 106.985 804 109 806.015 109 808.5 C 109 809.026 108.91014 809.53 108.74414 810 L 110.82617 810 C 110.94017 809.518 111 809.016 111 808.5 C 111 804.91 108.09 802 104.5 802 L 98 802 z M 134.5 802 C 130.91 802 128 804.91 128 808.5 C 128 809.016 128.05983 809.518 128.17383 810 L 130.25586 810 C 130.08986 809.53 130 809.026 130 808.5 C 130 806.015 132.015 804 134.5 804 L 135 804 L 135 802 L 134.5 802 z "
     style="fill:#000000;fill-opacity:1" />
</svg>
