<?xml version="1.0" encoding="UTF-8" standalone="no"?>
<!-- Created with qrencode 4.1.1 (https://fukuchi.org/works/qrencode/index.html) -->

<svg
   width="3.92cm"
   height="3.92cm"
   viewBox="0 0 37 37"
   preserveAspectRatio="none"
   version="1.1"
   id="svg429"
   sodipodi:docname="solder-flobpy.svg"
   inkscape:version="1.4.2 (ebf0e940d0, 2025-05-08)"
   xmlns:inkscape="http://www.inkscape.org/namespaces/inkscape"
   xmlns:sodipodi="http://sodipodi.sourceforge.net/DTD/sodipodi-0.dtd"
   xmlns="http://www.w3.org/2000/svg"
   xmlns:svg="http://www.w3.org/2000/svg">
  <defs
     id="defs429" />
  <sodipodi:namedview
     id="namedview429"
     pagecolor="#ffffff"
     bordercolor="#000000"
     borderopacity="0.25"
     inkscape:showpageshadow="2"
     inkscape:pageopacity="0.0"
     inkscape:pagecheckerboard="0"
     inkscape:deskcolor="#d1d1d1"
     inkscape:document-units="cm"
     inkscape:zoom="3.0502309"
     inkscape:cx="62.782132"
     inkscape:cy="87.8622"
     inkscape:window-width="1440"
     inkscape:window-height="888"
     inkscape:window-x="0"
     inkscape:window-y="0"
     inkscape:window-maximized="1"
     inkscape:current-layer="svg429" />
  <path
     id="rect1"
     d="M 0 0 L 0 37.000179 L 37.000179 37.000179 L 37.000179 0 L 0 0 z M 4.000138 4.000138 L 5.0000506 4.000138 L 5.9999631 4.000138 L 6.9998757 4.000138 L 7.9997883 4.000138 L 9.0001886 4.000138 L 10.000101 4.000138 L 11.000014 4.000138 L 11.000014 5.0000506 L 11.000014 5.9999631 L 11.000014 6.9998757 L 11.000014 7.9997883 L 11.000014 9.0001886 L 11.000014 10.000101 L 11.000014 11.000014 L 10.000101 11.000014 L 9.0001886 11.000014 L 7.9997883 11.000014 L 6.9998757 11.000014 L 5.9999631 11.000014 L 5.0000506 11.000014 L 4.000138 11.000014 L 4.000138 10.000101 L 4.000138 9.0001886 L 4.000138 7.9997883 L 4.000138 6.9998757 L 4.000138 5.9999631 L 4.000138 5.0000506 L 4.000138 4.000138 z M 11.999926 4.000138 L 12.999839 4.000138 L 14.000239 4.000138 L 15.000152 4.000138 L 16.000064 4.000138 L 16.000064 5.0000506 L 16.999977 5.0000506 L 17.999889 5.0000506 L 17.999889 4.000138 L 18.999802 4.000138 L 18.999802 5.0000506 L 17.999889 5.0000506 L 17.999889 5.9999631 L 18.999802 5.9999631 L 18.999802 6.9998757 L 17.999889 6.9998757 L 17.999889 7.9997883 L 18.999802 7.9997883 L 18.999802 9.0001886 L 18.999802 10.000101 L 18.999802 11.000014 L 18.999802 11.999926 L 20.000202 11.999926 L 20.000202 11.000014 L 20.000202 10.000101 L 21.000115 10.000101 L 21.000115 9.0001886 L 20.000202 9.0001886 L 20.000202 7.9997883 L 21.000115 7.9997883 L 21.000115 6.9998757 L 20.000202 6.9998757 L 20.000202 5.9999631 L 21.000115 5.9999631 L 21.000115 5.0000506 L 20.000202 5.0000506 L 20.000202 4.000138 L 21.000115 4.000138 L 22.000027 4.000138 L 22.000027 5.0000506 L 22.99994 5.0000506 L 23.999853 5.0000506 L 23.999853 5.9999631 L 24.999765 5.9999631 L 24.999765 6.9998757 L 24.999765 7.9997883 L 23.999853 7.9997883 L 23.999853 9.0001886 L 22.99994 9.0001886 L 22.000027 9.0001886 L 22.000027 10.000101 L 22.99994 10.000101 L 22.99994 11.000014 L 22.000027 11.000014 L 22.000027 10.000101 L 21.000115 10.000101 L 21.000115 11.000014 L 21.000115 11.999926 L 22.000027 11.999926 L 22.000027 12.999839 L 21.000115 12.999839 L 20.000202 12.999839 L 20.000202 14.000239 L 20.000202 15.000152 L 18.999802 15.000152 L 18.999802 14.000239 L 17.999889 14.000239 L 16.999977 14.000239 L 16.999977 15.000152 L 16.000064 15.000152 L 16.000064 14.000239 L 16.999977 14.000239 L 16.999977 12.999839 L 16.000064 12.999839 L 16.000064 11.999926 L 16.000064 11.000014 L 16.000064 10.000101 L 15.000152 10.000101 L 15.000152 11.000014 L 14.000239 11.000014 L 14.000239 11.999926 L 14.000239 12.999839 L 15.000152 12.999839 L 15.000152 14.000239 L 14.000239 14.000239 L 14.000239 15.000152 L 12.999839 15.000152 L 12.999839 14.000239 L 11.999926 14.000239 L 11.000014 14.000239 L 11.000014 15.000152 L 10.000101 15.000152 L 9.0001886 15.000152 L 7.9997883 15.000152 L 7.9997883 16.000064 L 6.9998757 16.000064 L 6.9998757 16.999977 L 6.9998757 17.999889 L 5.9999631 17.999889 L 5.0000506 17.999889 L 5.0000506 18.999802 L 4.000138 18.999802 L 4.000138 17.999889 L 4.000138 16.999977 L 4.000138 16.000064 L 4.000138 15.000152 L 4.000138 14.000239 L 4.000138 12.999839 L 4.000138 11.999926 L 5.0000506 11.999926 L 5.9999631 11.999926 L 5.9999631 12.999839 L 5.0000506 12.999839 L 5.0000506 14.000239 L 5.0000506 15.000152 L 5.9999631 15.000152 L 5.9999631 14.000239 L 6.9998757 14.000239 L 7.9997883 14.000239 L 9.0001886 14.000239 L 10.000101 14.000239 L 11.000014 14.000239 L 11.000014 12.999839 L 10.000101 12.999839 L 10.000101 11.999926 L 11.000014 11.999926 L 11.000014 12.999839 L 11.999926 12.999839 L 12.999839 12.999839 L 12.999839 11.999926 L 11.999926 11.999926 L 11.999926 11.000014 L 11.999926 10.000101 L 12.999839 10.000101 L 12.999839 9.0001886 L 14.000239 9.0001886 L 14.000239 7.9997883 L 14.000239 6.9998757 L 12.999839 6.9998757 L 12.999839 5.9999631 L 14.000239 5.9999631 L 14.000239 6.9998757 L 15.000152 6.9998757 L 15.000152 5.9999631 L 15.000152 5.0000506 L 14.000239 5.0000506 L 12.999839 5.0000506 L 11.999926 5.0000506 L 11.999926 4.000138 z M 14.000239 9.0001886 L 14.000239 10.000101 L 15.000152 10.000101 L 15.000152 9.0001886 L 14.000239 9.0001886 z M 14.000239 10.000101 L 12.999839 10.000101 L 12.999839 11.000014 L 14.000239 11.000014 L 14.000239 10.000101 z M 12.999839 12.999839 L 12.999839 14.000239 L 14.000239 14.000239 L 14.000239 12.999839 L 12.999839 12.999839 z M 5.9999631 15.000152 L 5.9999631 16.000064 L 6.9998757 16.000064 L 6.9998757 15.000152 L 5.9999631 15.000152 z M 5.9999631 16.000064 L 5.0000506 16.000064 L 5.0000506 16.999977 L 5.9999631 16.999977 L 5.9999631 16.000064 z M 16.000064 10.000101 L 16.999977 10.000101 L 16.999977 9.0001886 L 16.000064 9.0001886 L 16.000064 10.000101 z M 16.999977 9.0001886 L 17.999889 9.0001886 L 17.999889 7.9997883 L 16.999977 7.9997883 L 16.999977 9.0001886 z M 16.999977 7.9997883 L 16.999977 6.9998757 L 16.999977 5.9999631 L 16.000064 5.9999631 L 16.000064 6.9998757 L 16.000064 7.9997883 L 16.999977 7.9997883 z M 16.999977 10.000101 L 16.999977 11.000014 L 17.999889 11.000014 L 17.999889 10.000101 L 16.999977 10.000101 z M 16.999977 12.999839 L 17.999889 12.999839 L 17.999889 11.999926 L 16.999977 11.999926 L 16.999977 12.999839 z M 23.999853 5.9999631 L 22.99994 5.9999631 L 22.000027 5.9999631 L 21.000115 5.9999631 L 21.000115 6.9998757 L 22.000027 6.9998757 L 22.000027 7.9997883 L 22.99994 7.9997883 L 22.99994 6.9998757 L 23.999853 6.9998757 L 23.999853 5.9999631 z M 26.000165 4.000138 L 27.000078 4.000138 L 27.999991 4.000138 L 28.999903 4.000138 L 29.999816 4.000138 L 31.000216 4.000138 L 32.000129 4.000138 L 33.000041 4.000138 L 33.000041 5.0000506 L 33.000041 5.9999631 L 33.000041 6.9998757 L 33.000041 7.9997883 L 33.000041 9.0001886 L 33.000041 10.000101 L 33.000041 11.000014 L 32.000129 11.000014 L 31.000216 11.000014 L 29.999816 11.000014 L 28.999903 11.000014 L 27.999991 11.000014 L 27.000078 11.000014 L 26.000165 11.000014 L 26.000165 10.000101 L 26.000165 9.0001886 L 26.000165 7.9997883 L 26.000165 6.9998757 L 26.000165 5.9999631 L 26.000165 5.0000506 L 26.000165 4.000138 z M 5.0000506 5.0000506 L 5.0000506 5.9999631 L 5.0000506 6.9998757 L 5.0000506 7.9997883 L 5.0000506 9.0001886 L 5.0000506 10.000101 L 5.9999631 10.000101 L 6.9998757 10.000101 L 7.9997883 10.000101 L 9.0001886 10.000101 L 10.000101 10.000101 L 10.000101 9.0001886 L 10.000101 7.9997883 L 10.000101 6.9998757 L 10.000101 5.9999631 L 10.000101 5.0000506 L 9.0001886 5.0000506 L 7.9997883 5.0000506 L 6.9998757 5.0000506 L 5.9999631 5.0000506 L 5.0000506 5.0000506 z M 27.000078 5.0000506 L 27.000078 5.9999631 L 27.000078 6.9998757 L 27.000078 7.9997883 L 27.000078 9.0001886 L 27.000078 10.000101 L 27.999991 10.000101 L 28.999903 10.000101 L 29.999816 10.000101 L 31.000216 10.000101 L 32.000129 10.000101 L 32.000129 9.0001886 L 32.000129 7.9997883 L 32.000129 6.9998757 L 32.000129 5.9999631 L 32.000129 5.0000506 L 31.000216 5.0000506 L 29.999816 5.0000506 L 28.999903 5.0000506 L 27.999991 5.0000506 L 27.000078 5.0000506 z M 5.9999631 5.9999631 L 6.9998757 5.9999631 L 7.9997883 5.9999631 L 9.0001886 5.9999631 L 9.0001886 6.9998757 L 9.0001886 7.9997883 L 9.0001886 9.0001886 L 7.9997883 9.0001886 L 6.9998757 9.0001886 L 5.9999631 9.0001886 L 5.9999631 7.9997883 L 5.9999631 6.9998757 L 5.9999631 5.9999631 z M 27.999991 5.9999631 L 28.999903 5.9999631 L 29.999816 5.9999631 L 31.000216 5.9999631 L 31.000216 6.9998757 L 31.000216 7.9997883 L 31.000216 9.0001886 L 29.999816 9.0001886 L 28.999903 9.0001886 L 27.999991 9.0001886 L 27.999991 7.9997883 L 27.999991 6.9998757 L 27.999991 5.9999631 z M 23.999853 10.000101 L 24.999765 10.000101 L 24.999765 11.000014 L 24.999765 11.999926 L 24.999765 12.999839 L 26.000165 12.999839 L 26.000165 11.999926 L 27.000078 11.999926 L 27.000078 12.999839 L 27.999991 12.999839 L 28.999903 12.999839 L 28.999903 14.000239 L 28.999903 15.000152 L 29.999816 15.000152 L 29.999816 14.000239 L 29.999816 12.999839 L 31.000216 12.999839 L 32.000129 12.999839 L 32.000129 11.999926 L 33.000041 11.999926 L 33.000041 12.999839 L 32.000129 12.999839 L 32.000129 14.000239 L 31.000216 14.000239 L 31.000216 15.000152 L 29.999816 15.000152 L 29.999816 16.000064 L 28.999903 16.000064 L 28.999903 15.000152 L 27.999991 15.000152 L 27.999991 16.000064 L 27.999991 16.999977 L 28.999903 16.999977 L 29.999816 16.999977 L 31.000216 16.999977 L 32.000129 16.999977 L 32.000129 16.000064 L 32.000129 15.000152 L 33.000041 15.000152 L 33.000041 16.000064 L 33.000041 16.999977 L 33.000041 17.999889 L 33.000041 18.999802 L 33.000041 20.000202 L 32.000129 20.000202 L 32.000129 18.999802 L 32.000129 17.999889 L 31.000216 17.999889 L 31.000216 18.999802 L 31.000216 20.000202 L 29.999816 20.000202 L 29.999816 21.000115 L 31.000216 21.000115 L 32.000129 21.000115 L 32.000129 22.000027 L 33.000041 22.000027 L 33.000041 22.99994 L 32.000129 22.99994 L 32.000129 22.000027 L 31.000216 22.000027 L 29.999816 22.000027 L 29.999816 22.99994 L 31.000216 22.99994 L 31.000216 23.999853 L 32.000129 23.999853 L 32.000129 24.999765 L 31.000216 24.999765 L 29.999816 24.999765 L 29.999816 26.000165 L 29.999816 27.000078 L 28.999903 27.000078 L 28.999903 27.999991 L 29.999816 27.999991 L 29.999816 28.999903 L 28.999903 28.999903 L 27.999991 28.999903 L 27.000078 28.999903 L 26.000165 28.999903 L 26.000165 29.999816 L 26.000165 31.000216 L 27.000078 31.000216 L 27.000078 29.999816 L 27.999991 29.999816 L 28.999903 29.999816 L 28.999903 31.000216 L 29.999816 31.000216 L 29.999816 29.999816 L 31.000216 29.999816 L 32.000129 29.999816 L 32.000129 28.999903 L 31.000216 28.999903 L 31.000216 27.999991 L 31.000216 27.000078 L 32.000129 27.000078 L 32.000129 27.999991 L 32.000129 28.999903 L 33.000041 28.999903 L 33.000041 29.999816 L 33.000041 31.000216 L 33.000041 32.000129 L 32.000129 32.000129 L 32.000129 31.000216 L 31.000216 31.000216 L 31.000216 32.000129 L 29.999816 32.000129 L 28.999903 32.000129 L 28.999903 33.000041 L 27.999991 33.000041 L 27.999991 32.000129 L 27.000078 32.000129 L 27.000078 33.000041 L 26.000165 33.000041 L 26.000165 32.000129 L 26.000165 31.000216 L 24.999765 31.000216 L 23.999853 31.000216 L 23.999853 29.999816 L 24.999765 29.999816 L 24.999765 28.999903 L 23.999853 28.999903 L 22.99994 28.999903 L 22.99994 29.999816 L 22.000027 29.999816 L 22.000027 31.000216 L 22.99994 31.000216 L 22.99994 32.000129 L 23.999853 32.000129 L 24.999765 32.000129 L 24.999765 33.000041 L 23.999853 33.000041 L 22.99994 33.000041 L 22.000027 33.000041 L 22.000027 32.000129 L 22.000027 31.000216 L 21.000115 31.000216 L 21.000115 29.999816 L 20.000202 29.999816 L 20.000202 31.000216 L 20.000202 32.000129 L 18.999802 32.000129 L 18.999802 33.000041 L 17.999889 33.000041 L 17.999889 32.000129 L 18.999802 32.000129 L 18.999802 31.000216 L 18.999802 29.999816 L 18.999802 28.999903 L 18.999802 27.999991 L 18.999802 27.000078 L 17.999889 27.000078 L 17.999889 26.000165 L 18.999802 26.000165 L 18.999802 24.999765 L 17.999889 24.999765 L 17.999889 23.999853 L 16.999977 23.999853 L 16.999977 22.99994 L 16.000064 22.99994 L 16.000064 23.999853 L 16.000064 24.999765 L 16.999977 24.999765 L 16.999977 26.000165 L 16.000064 26.000165 L 16.000064 27.000078 L 16.999977 27.000078 L 16.999977 27.999991 L 16.999977 28.999903 L 16.000064 28.999903 L 15.000152 28.999903 L 14.000239 28.999903 L 14.000239 29.999816 L 14.000239 31.000216 L 12.999839 31.000216 L 12.999839 32.000129 L 12.999839 33.000041 L 11.999926 33.000041 L 11.999926 32.000129 L 11.999926 31.000216 L 12.999839 31.000216 L 12.999839 29.999816 L 11.999926 29.999816 L 11.999926 28.999903 L 11.999926 27.999991 L 12.999839 27.999991 L 12.999839 27.000078 L 14.000239 27.000078 L 14.000239 27.999991 L 15.000152 27.999991 L 15.000152 27.000078 L 15.000152 26.000165 L 16.000064 26.000165 L 16.000064 24.999765 L 15.000152 24.999765 L 15.000152 23.999853 L 15.000152 22.99994 L 16.000064 22.99994 L 16.000064 22.000027 L 15.000152 22.000027 L 14.000239 22.000027 L 14.000239 22.99994 L 14.000239 23.999853 L 12.999839 23.999853 L 12.999839 24.999765 L 14.000239 24.999765 L 14.000239 26.000165 L 12.999839 26.000165 L 11.999926 26.000165 L 11.999926 24.999765 L 11.000014 24.999765 L 10.000101 24.999765 L 9.0001886 24.999765 L 9.0001886 23.999853 L 9.0001886 22.99994 L 7.9997883 22.99994 L 7.9997883 22.000027 L 6.9998757 22.000027 L 5.9999631 22.000027 L 5.9999631 22.99994 L 6.9998757 22.99994 L 6.9998757 23.999853 L 5.9999631 23.999853 L 5.9999631 24.999765 L 5.0000506 24.999765 L 4.000138 24.999765 L 4.000138 23.999853 L 4.000138 22.99994 L 4.000138 22.000027 L 4.000138 21.000115 L 4.000138 20.000202 L 5.0000506 20.000202 L 5.9999631 20.000202 L 5.9999631 18.999802 L 6.9998757 18.999802 L 7.9997883 18.999802 L 7.9997883 17.999889 L 9.0001886 17.999889 L 9.0001886 16.999977 L 9.0001886 16.000064 L 10.000101 16.000064 L 11.000014 16.000064 L 11.999926 16.000064 L 11.999926 16.999977 L 12.999839 16.999977 L 12.999839 16.000064 L 14.000239 16.000064 L 15.000152 16.000064 L 15.000152 16.999977 L 15.000152 17.999889 L 15.000152 18.999802 L 15.000152 20.000202 L 16.000064 20.000202 L 16.000064 18.999802 L 16.999977 18.999802 L 16.999977 20.000202 L 17.999889 20.000202 L 17.999889 21.000115 L 16.999977 21.000115 L 16.000064 21.000115 L 16.000064 22.000027 L 16.999977 22.000027 L 16.999977 22.99994 L 17.999889 22.99994 L 17.999889 22.000027 L 18.999802 22.000027 L 18.999802 21.000115 L 20.000202 21.000115 L 20.000202 22.000027 L 20.000202 22.99994 L 21.000115 22.99994 L 21.000115 22.000027 L 21.000115 21.000115 L 22.000027 21.000115 L 22.99994 21.000115 L 22.99994 20.000202 L 22.000027 20.000202 L 22.000027 18.999802 L 21.000115 18.999802 L 20.000202 18.999802 L 18.999802 18.999802 L 17.999889 18.999802 L 17.999889 17.999889 L 17.999889 16.999977 L 18.999802 16.999977 L 18.999802 16.000064 L 20.000202 16.000064 L 21.000115 16.000064 L 21.000115 15.000152 L 21.000115 14.000239 L 22.000027 14.000239 L 22.000027 15.000152 L 22.99994 15.000152 L 23.999853 15.000152 L 23.999853 14.000239 L 22.99994 14.000239 L 22.99994 12.999839 L 22.99994 11.999926 L 23.999853 11.999926 L 23.999853 11.000014 L 23.999853 10.000101 z M 23.999853 14.000239 L 24.999765 14.000239 L 24.999765 12.999839 L 23.999853 12.999839 L 23.999853 14.000239 z M 24.999765 14.000239 L 24.999765 15.000152 L 26.000165 15.000152 L 27.000078 15.000152 L 27.000078 14.000239 L 27.000078 12.999839 L 26.000165 12.999839 L 26.000165 14.000239 L 24.999765 14.000239 z M 21.000115 16.000064 L 21.000115 16.999977 L 21.000115 17.999889 L 22.000027 17.999889 L 22.99994 17.999889 L 23.999853 17.999889 L 24.999765 17.999889 L 26.000165 17.999889 L 26.000165 16.999977 L 26.000165 16.000064 L 24.999765 16.000064 L 24.999765 16.999977 L 23.999853 16.999977 L 22.99994 16.999977 L 22.99994 16.000064 L 22.000027 16.000064 L 21.000115 16.000064 z M 21.000115 22.99994 L 21.000115 23.999853 L 22.000027 23.999853 L 22.000027 24.999765 L 22.99994 24.999765 L 22.99994 26.000165 L 23.999853 26.000165 L 23.999853 24.999765 L 23.999853 23.999853 L 22.99994 23.999853 L 22.99994 22.99994 L 22.000027 22.99994 L 21.000115 22.99994 z M 23.999853 23.999853 L 24.999765 23.999853 L 26.000165 23.999853 L 26.000165 22.99994 L 27.000078 22.99994 L 27.000078 23.999853 L 27.999991 23.999853 L 28.999903 23.999853 L 28.999903 22.99994 L 27.999991 22.99994 L 27.999991 22.000027 L 27.999991 21.000115 L 28.999903 21.000115 L 28.999903 20.000202 L 27.999991 20.000202 L 27.000078 20.000202 L 27.000078 18.999802 L 26.000165 18.999802 L 24.999765 18.999802 L 23.999853 18.999802 L 23.999853 20.000202 L 24.999765 20.000202 L 26.000165 20.000202 L 26.000165 21.000115 L 24.999765 21.000115 L 23.999853 21.000115 L 23.999853 22.000027 L 23.999853 22.99994 L 23.999853 23.999853 z M 27.000078 18.999802 L 27.999991 18.999802 L 27.999991 17.999889 L 27.000078 17.999889 L 27.000078 18.999802 z M 28.999903 20.000202 L 29.999816 20.000202 L 29.999816 18.999802 L 29.999816 17.999889 L 28.999903 17.999889 L 28.999903 18.999802 L 28.999903 20.000202 z M 28.999903 21.000115 L 28.999903 22.000027 L 29.999816 22.000027 L 29.999816 21.000115 L 28.999903 21.000115 z M 15.000152 20.000202 L 14.000239 20.000202 L 14.000239 21.000115 L 15.000152 21.000115 L 15.000152 20.000202 z M 14.000239 21.000115 L 12.999839 21.000115 L 11.999926 21.000115 L 11.000014 21.000115 L 10.000101 21.000115 L 10.000101 22.000027 L 11.000014 22.000027 L 11.999926 22.000027 L 12.999839 22.000027 L 14.000239 22.000027 L 14.000239 21.000115 z M 10.000101 22.000027 L 9.0001886 22.000027 L 9.0001886 22.99994 L 10.000101 22.99994 L 10.000101 22.000027 z M 10.000101 22.99994 L 10.000101 23.999853 L 11.000014 23.999853 L 11.000014 22.99994 L 10.000101 22.99994 z M 12.999839 16.999977 L 12.999839 17.999889 L 12.999839 18.999802 L 14.000239 18.999802 L 14.000239 17.999889 L 14.000239 16.999977 L 12.999839 16.999977 z M 12.999839 18.999802 L 11.999926 18.999802 L 11.999926 17.999889 L 11.999926 16.999977 L 11.000014 16.999977 L 10.000101 16.999977 L 10.000101 17.999889 L 11.000014 17.999889 L 11.000014 18.999802 L 10.000101 18.999802 L 10.000101 20.000202 L 11.000014 20.000202 L 11.999926 20.000202 L 12.999839 20.000202 L 12.999839 18.999802 z M 12.999839 23.999853 L 12.999839 22.99994 L 11.999926 22.99994 L 11.999926 23.999853 L 12.999839 23.999853 z M 18.999802 24.999765 L 20.000202 24.999765 L 20.000202 23.999853 L 18.999802 23.999853 L 18.999802 24.999765 z M 20.000202 24.999765 L 20.000202 26.000165 L 21.000115 26.000165 L 21.000115 24.999765 L 20.000202 24.999765 z M 22.99994 28.999903 L 22.99994 27.999991 L 22.99994 27.000078 L 22.000027 27.000078 L 22.000027 27.999991 L 21.000115 27.999991 L 20.000202 27.999991 L 20.000202 28.999903 L 21.000115 28.999903 L 22.000027 28.999903 L 22.99994 28.999903 z M 27.999991 32.000129 L 28.999903 32.000129 L 28.999903 31.000216 L 27.999991 31.000216 L 27.999991 32.000129 z M 6.9998757 11.999926 L 7.9997883 11.999926 L 9.0001886 11.999926 L 9.0001886 12.999839 L 7.9997883 12.999839 L 6.9998757 12.999839 L 6.9998757 11.999926 z M 16.000064 16.999977 L 16.999977 16.999977 L 16.999977 17.999889 L 16.000064 17.999889 L 16.000064 16.999977 z M 6.9998757 20.000202 L 6.9998757 21.000115 L 7.9997883 21.000115 L 9.0001886 21.000115 L 9.0001886 20.000202 L 7.9997883 20.000202 L 6.9998757 20.000202 z M 24.999765 24.999765 L 24.999765 26.000165 L 24.999765 27.000078 L 24.999765 27.999991 L 26.000165 27.999991 L 27.000078 27.999991 L 27.999991 27.999991 L 27.999991 27.000078 L 27.999991 26.000165 L 27.999991 24.999765 L 27.000078 24.999765 L 26.000165 24.999765 L 24.999765 24.999765 z M 4.000138 26.000165 L 5.0000506 26.000165 L 5.9999631 26.000165 L 6.9998757 26.000165 L 7.9997883 26.000165 L 9.0001886 26.000165 L 10.000101 26.000165 L 11.000014 26.000165 L 11.000014 27.000078 L 11.000014 27.999991 L 11.000014 28.999903 L 11.000014 29.999816 L 11.000014 31.000216 L 11.000014 32.000129 L 11.000014 33.000041 L 10.000101 33.000041 L 9.0001886 33.000041 L 7.9997883 33.000041 L 6.9998757 33.000041 L 5.9999631 33.000041 L 5.0000506 33.000041 L 4.000138 33.000041 L 4.000138 32.000129 L 4.000138 31.000216 L 4.000138 29.999816 L 4.000138 28.999903 L 4.000138 27.999991 L 4.000138 27.000078 L 4.000138 26.000165 z M 26.000165 26.000165 L 27.000078 26.000165 L 27.000078 27.000078 L 26.000165 27.000078 L 26.000165 26.000165 z M 5.0000506 27.000078 L 5.0000506 27.999991 L 5.0000506 28.999903 L 5.0000506 29.999816 L 5.0000506 31.000216 L 5.0000506 32.000129 L 5.9999631 32.000129 L 6.9998757 32.000129 L 7.9997883 32.000129 L 9.0001886 32.000129 L 10.000101 32.000129 L 10.000101 31.000216 L 10.000101 29.999816 L 10.000101 28.999903 L 10.000101 27.999991 L 10.000101 27.000078 L 9.0001886 27.000078 L 7.9997883 27.000078 L 6.9998757 27.000078 L 5.9999631 27.000078 L 5.0000506 27.000078 z M 5.9999631 27.999991 L 6.9998757 27.999991 L 7.9997883 27.999991 L 9.0001886 27.999991 L 9.0001886 28.999903 L 9.0001886 29.999816 L 9.0001886 31.000216 L 7.9997883 31.000216 L 6.9998757 31.000216 L 5.9999631 31.000216 L 5.9999631 29.999816 L 5.9999631 28.999903 L 5.9999631 27.999991 z M 15.000152 29.999816 L 16.000064 29.999816 L 16.999977 29.999816 L 17.999889 29.999816 L 17.999889 31.000216 L 16.999977 31.000216 L 16.000064 31.000216 L 16.000064 32.000129 L 16.999977 32.000129 L 16.999977 33.000041 L 16.000064 33.000041 L 16.000064 32.000129 L 15.000152 32.000129 L 15.000152 31.000216 L 15.000152 29.999816 z " />
</svg>
