<?xml version="1.0" encoding="UTF-8" standalone="no"?>
<!-- Created with Inkscape (http://www.inkscape.org/) -->

<svg
   version="1.1"
   id="svg1"
   xml:space="preserve"
   width="389.2356"
   height="695.6308"
   xmlns="http://www.w3.org/2000/svg"
   xmlns:svg="http://www.w3.org/2000/svg"><defs
     id="defs1" /><g
     id="g55"
     transform="translate(-2465.0394,-891.77084)"><g
       id="layer1-57"
       style="display:inline"
       transform="matrix(1.4655937,0,0,1.4655937,2355.0389,829.21979)"><path
         id="path5-3"
         style="display:inline;fill:#ffffff;fill-opacity:1;stroke-width:0;stroke-linecap:square"
         d="m 207.2413,42.690501 a 17.320503,17.320503 0 0 0 -2.40277,0.253204 17.320503,17.320503 0 0 0 -5.65178,2.056281 L 77.942158,115.00015 a 5.7735026,5.7735026 0 0 0 0,10.00021 l 51.961402,29.99931 17.32046,10.00021 51.96273,30.00064 a 17.320513,17.320513 0 0 0 17.31914,0 l 121.24459,-70.00016 a 5.7735021,5.7735021 0 0 0 0,-10.00021 L 287.27232,85.856402 c -1.95823,1.22166 -3.96028,2.374833 -5.99826,3.46356 17.71242,10.227297 35.42448,20.455378 53.13813,30.680298 -35.71258,20.61839 -71.42457,41.2366 -107.13715,61.85499 -4.72421,2.70001 -9.40402,5.48335 -14.15675,8.13051 -3.38409,1.8461 -7.68678,1.70699 -11.0037,-0.22788 -16.29919,-9.40395 -32.59579,-18.81135 -48.89231,-28.22022 l 37.30357,-21.53831 -17.32046,-9.99888 -37.30357,21.53697 C 117.69462,141.02455 99.487556,130.51087 81.279116,120.00026 101.37944,108.3953 121.4798,96.789858 141.58024,85.184746 c 0.52765,-2.733737 2.42996,-5.135786 4.78689,-6.596623 13.32635,-7.74038 26.69056,-15.41731 40.0315,-23.13349 3.16292,-2.07573 7.06346,-2.877369 10.80514,-2.508049 0.0556,0.0092 0.111,0.01881 0.16658,0.02799 0.1663,-0.09602 0.3321,-0.191836 0.49841,-0.287853 2.60529,-1.39645 5.03941,-3.302931 8.0159,-3.826041 0.66082,-0.112723 1.32765,-0.164791 1.99231,-0.159918 1.99397,0.01462 3.96968,0.548468 5.71174,1.54854 1.56837,0.904886 3.13726,1.809658 4.70559,2.71461 2.67558,-0.553511 5.2951,-1.347539 7.80801,-2.422759 l -9.59642,-5.541163 a 17.320503,17.320503 0 0 0 -9.26459,-2.309485 z m -7.77069,63.110359 a 25.980762,15 0 0 0 -17.60432,14.1994 25.980762,15 0 0 0 25.98003,15.00032 25.980762,15 0 0 0 25.98003,-15.00032 25.980762,15 0 0 0 -17.57767,-14.19407 c -1.72931,0.0778 -3.45998,0.13245 -5.18934,0.16391 -3.86132,0.0606 -7.72725,0.006 -11.58873,-0.16924 z"
         transform="translate(-5.4085615e-7,319.99999)" /><path
         id="path4-9"
         style="display:inline;fill:#ffffff;fill-opacity:1;stroke-width:0;stroke-linecap:square"
         d="m 290.56968,163.67714 c -10.33308,7.05836 -22.01208,12.03249 -33.99059,15.56403 -8.67958,2.52893 -17.55981,4.31351 -26.52776,5.4079 7.60033,3.66875 12.43497,9.1838 12.43497,15.35081 0,11.04561 -15.50938,20.0003 -34.64093,20.00043 -3.64816,-0.008 -7.26315,-0.34829 -10.71318,-1.00482 -1.94649,-0.37041 -4.89102,0.0125 -6.60729,1.00348 l -40.53658,23.40669 c -3.53356,2.04026 -3.39386,5.08433 0.41446,6.54731 16.96698,6.51794 36.93926,10.03262 57.44259,10.04686 57.39542,2.5e-4 103.92413,-26.86269 103.92413,-59.99995 0,-13.65256 -7.89794,-26.24011 -21.19982,-36.32274 z m -165.44729,0.001 c -13.30116,10.08249 -21.19849,22.66928 -21.19849,36.32141 0.0257,12.39346 6.69605,24.45098 19.02493,34.53299 1.79422,1.46723 4.94766,1.62684 6.95511,0.46776 l 43.3005,-25.00054 c 1.71635,-0.99101 2.05321,-3.04267 1.21138,-4.83219 -0.79044,-1.68026 -1.20011,-3.41768 -1.21138,-5.16802 0,-6.17115 4.8418,-11.68874 12.45096,-15.35747 -10.5255,-1.28287 -20.94129,-3.4936 -31.02146,-6.78853 -10.37372,-3.42929 -20.47913,-7.99996 -29.51155,-14.17541 z"
         transform="translate(-3.8263857e-4,159.99998)" /><path
         id="path5-7"
         style="display:inline;fill:#ffffff;fill-opacity:1;stroke-width:0;stroke-linecap:square"
         d="m 172.22455,223.63503 a 103.923,60 0 0 0 -21.32774,6.1755 c -4.64194,2.6784 -9.28391,5.35547 -13.92354,8.03722 -2.04676,1.06852 -3.89417,2.54742 -6.1182,3.24634 -0.97833,0.33235 -2.0002,0.54094 -3.03312,0.62501 a 103.923,60 0 0 0 -23.89843,38.2804 103.923,60 0 0 0 103.9228,59.99995 103.923,60 0 0 0 103.92279,-59.99995 103.923,60 0 0 0 -21.19182,-36.31207 c -1.77389,1.21295 -3.59066,2.36518 -5.44254,3.45823 6.70961,4.79462 12.79471,10.70678 16.72743,18.01744 2.87451,5.29571 4.34992,11.4047 3.76474,17.43107 -0.67011,7.67507 -4.51087,14.73212 -9.51513,20.45487 -7.04163,7.98874 -16.1895,13.83805 -25.78413,18.29729 -13.9704,6.42432 -29.10992,10.06009 -44.36529,11.68602 -0.52314,0.0559 -1.34521,0.13228 -1.67914,0.17058 -20.71762,1.92511 -41.85523,0.33119 -61.86299,-5.50385 -0.49284,-0.14796 -1.36015,-0.40315 -1.61917,-0.48375 -5.49462,-1.69235 -10.88927,-3.72511 -16.09443,-6.17017 -9.15045,-4.33912 -17.87391,-9.9473 -24.69536,-17.51237 -5.17514,-5.75504 -9.18622,-12.90626 -9.91492,-20.72006 -0.70496,-6.64935 1.14478,-13.38547 4.55633,-19.07957 4.97328,-8.37181 12.63265,-14.78928 20.844,-19.84051 4.40107,-2.66744 9.00295,-4.96609 13.74096,-6.94711 7.64519,-4.4655 15.31549,-8.88864 22.9869,-13.31051 z m 27.27937,42.15974 a 25.980764,15 0 0 0 -17.63897,14.20473 25.980764,15 0 0 0 25.98137,15.00032 25.980764,15 0 0 0 25.98003,-15.00032 25.980764,15 0 0 0 -17.575,-14.19273 c -3.67332,0.16219 -7.35,0.21531 -11.02236,0.16391 -1.90815,-0.0306 -3.81717,-0.0886 -5.72507,-0.17591 z m 8.3424,11.70468 a 4.3301272,2.5 0 0 1 4.32978,2.50005 4.3301272,2.5 0 0 1 -4.32978,2.50006 4.3301272,2.5 0 0 1 -4.33112,-2.50006 4.3301272,2.5 0 0 1 4.33112,-2.50005 z m -4.33112,10.00021 h 8.6609 v 5.00011 h -8.6609 z" /><path
         id="path4"
         style="display:inline;fill:#ffffff;fill-opacity:1;stroke-width:0;stroke-linecap:square"
         d="m 128.60555,161.179 c -15.39458,10.464 -24.68203,24.01659 -24.68203,38.82146 0.0257,12.39346 6.69737,24.45098 19.02626,34.53299 1.79422,1.46723 4.94766,1.62684 6.95511,0.46776 l 43.30049,-25.00187 c 1.71636,-0.99101 2.05188,-3.04268 1.21005,-4.83219 -0.79043,-1.68026 -1.19877,-3.41635 -1.21005,-5.16669 0,-3.74917 1.78606,-7.25851 4.89483,-10.25742 -16.50108,-9.51716 -32.99803,-19.03966 -49.49466,-28.56404 z m 158.4842,0.001 c -11.9008,6.86965 -23.80259,13.73686 -35.70173,20.60945 -4.59983,2.64744 -9.19424,5.30619 -13.78894,7.96259 3.1036,2.99713 4.88684,6.5023 4.88684,10.24809 0,11.04561 -15.50805,19.99897 -34.6396,19.99909 -3.64816,-0.008 -7.26449,-0.34828 -10.71452,-1.00482 -1.94649,-0.37041 -4.88968,0.0139 -6.60595,1.00482 l -40.53791,23.40535 c -3.53357,2.04026 -3.39254,5.08567 0.41578,6.54865 16.96699,6.51794 36.93926,10.03262 57.4426,10.04686 57.39542,2.5e-4 103.92279,-26.86269 103.92279,-59.99995 0,-14.80434 -9.28582,-28.3563 -24.67936,-38.82013 z" /><path
         id="path12"
         style="display:inline;fill:#ffffff;fill-opacity:1;stroke:none;stroke-width:0;stroke-linecap:butt;stroke-dasharray:none;stroke-opacity:1"
         d="m 207.84632,42.679667 a 17.320503,17.320503 0 0 0 -8.6609,2.320145 L 77.942155,114.99998 a 5.7735026,5.7735026 0 0 0 0,10.00021 l 25.981365,15.00032 69.28186,39.99952 25.98004,15.00032 a 17.320513,17.320513 0 0 0 17.32046,0 l 121.2446,-70.00016 a 5.7735021,5.7735021 0 0 0 0,-10.00021 L 216.50588,44.999812 a 17.320503,17.320503 0 0 0 -8.65956,-2.320145 z m 0.032,6.020917 c 1.99351,0.01441 3.96867,0.548877 5.71041,1.549874 40.28005,23.239854 80.548,46.50132 120.82348,69.749622 -35.71258,20.61839 -71.42457,41.23661 -107.13715,61.855 -4.72421,2.70001 -9.40403,5.48468 -14.15676,8.13184 -3.38409,1.8461 -7.68678,1.70565 -11.0037,-0.22922 -7.63722,-4.40636 -15.27445,-8.81351 -22.91093,-13.22123 L 225.1668,149.99939 155.88494,109.99987 109.9218,136.53695 C 100.37433,131.0244 90.827142,125.51158 81.279113,120.00008 120.17104,97.545792 159.06346,75.091532 197.95538,52.637236 c 2.57539,-1.383323 4.98689,-3.263316 7.93194,-3.775401 0.66082,-0.112609 1.32648,-0.166053 1.99098,-0.161251 z m 8.62758,6.299442 -60.62096,34.999415 103.92279,59.999949 60.6223,-34.99941 z m -8.97274,15.180228 10.60791,6.124865 c 1.77812,1.026601 2.91412,2.070096 3.40758,3.130397 0.53706,1.058732 0.48795,2.112958 -0.14659,3.163714 -0.6114,1.037388 -1.73954,2.03061 -3.3836,2.979808 -1.3429,0.775253 -2.7814,1.335609 -4.31646,1.67914 -1.51481,0.355374 -3.04728,0.472851 -4.59764,0.353152 -1.2329,-0.09519 -2.41667,-0.339494 -3.54885,-0.731625 l -4.48837,8.804826 -5.85567,-3.379603 4.27515,-7.919946 -3.25034,-1.876373 -8.99539,5.193342 -5.0281,-2.902514 z m 0.16658,5.71041 -7.19098,4.151208 4.69093,2.707947 c 0.77665,0.4484 1.54654,0.759746 2.30949,0.932856 0.78611,0.159741 1.53186,0.188561 2.23752,0.08795 0.74925,-0.10218 1.44789,-0.339969 2.09626,-0.714301 l 1.07678,-0.622348 c 0.64836,-0.374331 1.05084,-0.782992 1.20738,-1.227372 0.17698,-0.432579 0.11593,-0.869506 -0.18391,-1.309996 -0.29983,-0.44049 -0.81809,-0.873202 -1.55387,-1.298002 z m 22.48449,7.368228 5.0281,2.902514 -25.32037,14.619184 -5.0281,-2.903848 z m 10.11749,5.84101 5.02809,2.902514 -25.3217,14.619184 -5.02676,-2.90385 z m 8.75419,8.503646 c 2.02848,-0.08554 3.99498,0.100436 5.89964,0.558381 1.90466,0.457944 3.68577,1.16445 5.34127,2.120251 1.88031,1.0856 3.17455,2.26058 3.88467,3.52619 0.73057,1.2774 0.8525,2.56452 0.36515,3.86069 -0.44375,1.2946 -1.48642,2.51028 -3.12906,3.64747 l -5.1507,-2.97315 c 0.71641,-0.60242 1.1305,-1.21892 1.24203,-1.84972 0.13469,-0.64416 0.005,-1.25339 -0.38913,-1.82839 -0.37344,-0.5632 -0.95801,-1.07502 -1.7551,-1.53522 -1.26717,-0.7316 -2.5861,-1.18566 -3.95665,-1.36197 -1.34739,-0.18969 -2.6896,-0.13484 -4.0246,0.16392 -1.31184,0.28539 -2.55715,0.7681 -3.73809,1.44992 l -3.96064,2.28683 c -0.97254,0.5615 -1.7173,1.13368 -2.23619,1.71646 -0.47528,0.58121 -0.73486,1.16707 -0.77693,1.75776 -0.0189,0.57732 0.18,1.14683 0.59703,1.70846 0.44019,0.54826 1.10013,1.07579 1.97898,1.58319 0.81753,0.472 1.73551,0.81478 2.75459,1.02881 1.01908,0.21404 2.06493,0.28276 3.13706,0.20656 1.11573,-0.0778 2.1847,-0.32886 3.20769,-0.75428 l 5.1507,2.97314 c -1.48881,0.71797 -3.06493,1.23876 -4.72824,1.56187 -1.66331,0.32311 -3.34902,0.45907 -5.05875,0.40779 -1.68658,-0.0647 -3.34274,-0.31189 -4.96812,-0.74228 -1.58178,-0.43196 -3.05771,-1.04313 -4.42707,-1.83373 -2.41171,-1.3924 -3.90376,-2.85595 -4.47637,-4.38976 -0.57261,-1.5338 -0.30615,-3.09198 0.79825,-4.6736 1.12756,-1.595 3.02218,-3.16017 5.68509,-4.6976 l 0.10395,-0.0613 c 2.13033,-1.22995 4.25071,-2.157781 6.35941,-2.78524 2.1523,-0.629029 4.24165,-0.98591 6.27013,-1.071452 z m 24.03569,13.875562 c 2.02847,-0.0856 3.99499,0.10176 5.89965,0.55971 1.90466,0.45794 3.68443,1.16445 5.33993,2.12025 1.88031,1.0856 3.17588,2.26059 3.88601,3.5262 0.73057,1.27741 0.8525,2.56452 0.36515,3.86069 -0.44375,1.2946 -1.48642,2.51028 -3.12907,3.64746 l -5.1507,-2.97314 c 0.71641,-0.60242 1.1305,-1.21893 1.24204,-1.84972 0.13468,-0.64417 0.005,-1.25341 -0.38914,-1.8284 -0.37344,-0.5632 -0.95934,-1.07501 -1.75643,-1.53521 -1.26717,-0.7316 -2.58609,-1.18566 -3.95664,-1.36197 -1.34739,-0.18968 -2.68829,-0.13484 -4.02328,0.16391 -1.31184,0.2854 -2.55847,0.76811 -3.73942,1.44993 l -3.9593,2.28683 c -0.97254,0.5615 -1.71864,1.13368 -2.23752,1.71645 -0.47529,0.58121 -0.73354,1.16708 -0.77561,1.75777 -0.0189,0.57731 0.18,1.14684 0.59703,1.70846 0.44019,0.54826 1.10014,1.07579 1.97899,1.58319 0.81752,0.472 1.73551,0.81476 2.75459,1.0288 1.01908,0.21403 2.06493,0.28276 3.13706,0.20657 1.11572,-0.0778 2.18471,-0.32887 3.20769,-0.75429 l 5.1507,2.97315 c -1.48882,0.71797 -3.06494,1.23876 -4.72825,1.56187 -1.66331,0.32312 -3.35035,0.45908 -5.06008,0.40779 -1.68658,-0.0647 -3.34142,-0.3119 -4.96679,-0.74229 -1.58178,-0.43196 -3.0577,-1.04313 -4.42706,-1.83373 -2.41171,-1.3924 -3.90377,-2.85595 -4.47638,-4.38975 -0.57261,-1.53381 -0.30747,-3.09198 0.79693,-4.67361 1.12755,-1.59499 3.02351,-3.16016 5.68642,-4.69759 l 0.10395,-0.0613 c 2.13033,-1.22995 4.24937,-2.15778 6.35807,-2.78524 2.1523,-0.62903 4.24298,-0.98725 6.27146,-1.07279 z m -117.20666,8.52097 17.32046,10.00022 -34.64093,19.99909 -17.32046,-9.99888 z" /></g></g></svg>
